<svg xmlns="http://www.w3.org/2000/svg" width="300" height="147" viewBox="0 0 300 147">
    <path fill="#FFF" fill-rule="nonzero" d="M13.338 93.933c3.205-1.043 4.76-6.787 2.745-12.998-2.015-6.211-6.644-9.943-9.849-8.9-3.204 1.043-4.76 6.787-2.745 12.998 2.015 6.211 6.645 9.942 9.85 8.9zm222.648-37.469l-19.294-15.462L49.64 96.28c3.009 1.71 5.747 5.22 7.206 9.72 1.446 4.456 1.308 8.866-.085 12.015l179.225-61.552zm12.34-4.237l-30.26-22.461v8.783l20.835 16.915 9.425-3.237zm-172.4 84.042c-2.403-7.405-.431-14.684 4.403-16.257.152-.05 72.127-24.258 215.924-72.626L225.756 2.83 11.394 70.45c2.985 1.723 5.696 5.217 7.145 9.685 1.46 4.499 1.305 8.95-.125 12.105l198.667-65.82 36.797 26.634L53.037 122.03c-5.428 1.8-11.294-2.927-13.697-10.333-2.402-7.405-.43-14.683 4.403-16.257.279-.09.56-.16.845-.21l170.896-56.607v-8.917L14.504 96.26c-5.202 1.706-11.068-3.022-13.47-10.428-2.403-7.405-.432-14.684 4.402-16.257C5.6 69.522 79.161 46.331 226.122.003l73.477 46.433v28.559l-209.962 71.6c-5.442 1.808-11.309-2.92-13.711-10.326zm221.09-63.126V49.857l-210.84 70.968c3.028 1.699 5.788 5.224 7.256 9.747 1.447 4.462 1.307 8.878-.09 12.027l203.675-69.456zM88.279 144.354c.092-.031.222-.085.392-.162 2.903-1.405 4.226-6.9 2.306-12.82-2.015-6.212-6.645-9.943-9.85-8.9-3.203 1.043-4.76 6.787-2.744 12.998 1.94 5.98 6.303 9.66 9.485 8.996.187-.045.324-.082.411-.112zM54.39 106.8c-2.015-6.211-6.644-9.942-9.849-8.9-3.204 1.043-4.76 6.787-2.745 12.998 2.015 6.211 6.645 9.942 9.85 8.9.057-.019.113-.04.17-.06l.255-.111c2.913-1.395 4.243-6.898 2.32-12.827z" opacity=".2"/>
</svg>
