<svg xmlns="http://www.w3.org/2000/svg" xmlns:xlink="http://www.w3.org/1999/xlink" width="25" height="25" viewBox="0 0 25 25">
    <defs>
        <path id="a" d="M13.236 12.5l1.82 1.833s.318.373 0 .707c-.316.333-.706 0-.706 0l-1.822-1.833-1.81 1.787a.493.493 0 0 1-.703 0 .507.507 0 0 1-.004-.707l1.81-1.787-1.81-1.819s-.355-.352 0-.707.707 0 .707 0l1.81 1.819 1.759-1.819s.344-.332.707 0 0 .707 0 .707L13.236 12.5zM6.339 8.743C6.704 8.333 7.447 8 8 8h9.998C19.103 8 20 8.896 20 9.997v5.006A1.998 1.998 0 0 1 17.997 17H8c-.552 0-1.3-.338-1.66-.743l-2.678-3.014a1.152 1.152 0 0 1 0-1.486l2.678-3.014z"/>
    </defs>
    <g fill="none" fill-rule="evenodd">
        <mask id="b" fill="#fff">
            <use xlink:href="#a"/>
        </mask>
        <g fill="#888" mask="url(#b)">
            <path d="M0 0h25v25H0z"/>
        </g>
    </g>
</svg>
