<svg xmlns="http://www.w3.org/2000/svg" xmlns:xlink="http://www.w3.org/1999/xlink" width="50" height="50" viewBox="0 0 50 50">
    <defs>
        <path id="a" d="M27.812 15.423a1.222 1.222 0 0 1 .674-2.35c.538.155 1.362.517 2.334 1.162 1.586 1.054 3.028 2.54 4.175 4.526 1.146 1.986 1.713 3.979 1.832 5.879.073 1.164-.026 2.06-.161 2.602a1.222 1.222 0 0 1-2.371-.591c.078-.313.15-.961.093-1.858-.097-1.536-.559-3.163-1.51-4.81-.95-1.647-2.128-2.86-3.41-3.712-.749-.497-1.346-.76-1.656-.848zm-.617 5.91a1.222 1.222 0 1 1 .87-2.283c.232.088.55.26.915.537a5.906 5.906 0 0 1 1.526 1.766c.433.75.676 1.496.767 2.205.058.454.047.816.007 1.06a1.222 1.222 0 0 1-2.413-.388 1.784 1.784 0 0 0-.018-.362 3.475 3.475 0 0 0-.46-1.293 3.475 3.475 0 0 0-.89-1.044 1.784 1.784 0 0 0-.304-.198zm-.18 10.5a1.222 1.222 0 0 1 1.67.448l3.054 5.291a1.222 1.222 0 0 1-.447 1.67l-.969.558a4.888 4.888 0 0 1-4.859.017c-3.688-2.096-6.862-5.448-9.522-10.056-2.66-4.607-3.976-9.032-3.947-13.274a4.887 4.887 0 0 1 2.444-4.2l.968-.558a1.222 1.222 0 0 1 1.67.447l3.054 5.29a1.222 1.222 0 0 1-.447 1.67l-1.058.61c-2.117 1.223-.771 4.73 1.04 7.866 1.81 3.136 4.174 6.055 6.29 4.833l1.059-.611z"/>
    </defs>
    <g fill="none" fill-rule="evenodd">
        <mask id="b" fill="#fff">
            <use xlink:href="#a"/>
        </mask>
        <g fill="#FFF" mask="url(#b)">
            <path d="M0 0h50v50H0z"/>
        </g>
    </g>
</svg>
