<svg xmlns="http://www.w3.org/2000/svg" xmlns:xlink="http://www.w3.org/1999/xlink" width="25" height="25" viewBox="0 0 25 25">
    <defs>
        <path id="a" d="M13.906 7.711a.61.61 0 0 1 .337-1.174c.269.077.681.258 1.167.58.793.527 1.514 1.27 2.087 2.264.574.993.857 1.989.916 2.939.037.582-.012 1.03-.08 1.301a.61.61 0 0 1-1.186-.296c.04-.156.075-.48.047-.929-.048-.768-.28-1.58-.755-2.404-.475-.824-1.064-1.43-1.705-1.856-.374-.25-.673-.38-.828-.425zm-.308 2.956a.61.61 0 0 1 .434-1.142c.116.044.276.13.458.268.284.217.547.508.763.883.217.375.338.748.383 1.103.03.227.024.408.004.53a.61.61 0 1 1-1.206-.194.892.892 0 0 0-.01-.181 1.738 1.738 0 0 0-.229-.647c-.133-.23-.286-.4-.445-.522a.892.892 0 0 0-.152-.098zm-.09 5.25a.61.61 0 0 1 .834.224l1.527 2.645a.61.61 0 0 1-.223.835l-.484.28a2.444 2.444 0 0 1-2.43.007c-1.844-1.048-3.43-2.723-4.76-5.027-1.331-2.304-1.989-4.516-1.974-6.637a2.444 2.444 0 0 1 1.221-2.1l.485-.28a.61.61 0 0 1 .834.224l1.528 2.645a.61.61 0 0 1-.224.835l-.53.305c-1.057.611-.385 2.365.52 3.933.906 1.568 2.088 3.027 3.146 2.416l.53-.305z"/>
    </defs>
    <g fill="none" fill-rule="evenodd">
        <mask id="b" fill="#fff">
            <use xlink:href="#a"/>
        </mask>
        <g fill="#888" mask="url(#b)">
            <path d="M0 0h25v25H0z"/>
        </g>
    </g>
</svg>
