<?xml version="1.0" encoding="UTF-8"?>
<svg width="50px" height="50px" viewBox="0 0 50 50" version="1.1" xmlns="http://www.w3.org/2000/svg" xmlns:xlink="http://www.w3.org/1999/xlink">

    <defs>
        <path d="M38,16 L38,19.3748765 C38,21.5868921 36.2381064,23.7539036 34.083995,24.2109383 L18.5330775,27.5103546 L19.2552009,30.4735383 C19.4735414,31.3694836 20.2761665,32 21.1983327,32 L34.9898682,32 C35.6632894,32.0128581 36,32.3494059 36,33.0096436 C36,33.6698812 35.6632894,34 34.9898682,34 L21.1813162,34 C19.3190286,34 17.7031149,32.7148168 17.2839537,30.9003145 L13.275889,13.5498428 C13.0663084,12.6425916 12.2583515,12 11.3272078,12 L9.01965332,12 C8.3418986,12.0131022 8.00302124,11.6807454 8.00302124,11.0029297 C8.00302124,10.3251139 8.3418986,9.99080404 9.01965332,10 L11.291032,10 C13.1267505,10 14.7268322,11.2495201 15.1717633,13.0305026 L15.4139664,14 L36,14 C37.1045695,14 38,14.8954305 38,16 Z M20,40 C18.8954305,40 18,39.1045695 18,38 C18,36.8954305 18.8954305,36 20,36 C21.1045695,36 22,36.8954305 22,38 C22,39.1045695 21.1045695,40 20,40 Z M34,40 C32.8954305,40 32,39.1045695 32,38 C32,36.8954305 32.8954305,36 34,36 C35.1045695,36 36,36.8954305 36,38 C36,39.1045695 35.1045695,40 34,40 Z M36,16 L15.8757027,16 L18.0825624,25.5589595 L34.048412,22.1217483 C35.1262443,21.8897069 36,20.8107252 36,19.7074572 L36,16 Z M17.1813965,17.0473633 L19.0388184,17.0473633 L17.5843506,18.6900635 L17.1813965,17.0473633 Z M22.5620117,17.0473633 L24.7536621,17.0473633 L18.7111816,22.8990479 L18.2723389,21.1776123 L22.5620117,17.0473633 Z M28.7476501,17.0473633 L30.8829346,17.0473633 L24.7536621,22.8990479 L22.085907,23.4903564 L28.7476501,17.0473633 Z M34.2420349,17.0005646 L34.7801514,17.0005646 L34.7801514,18.6900635 L31.9460144,21.3110352 L29.1118774,21.9437561 L34.2420349,17.0005646 Z" id="path-1"></path>
    </defs>
    <g id="Page-1" stroke="none" stroke-width="1" fill="none" fill-rule="evenodd">
        <g id="Artboard" transform="translate(-190.000000, -150.000000)">
            <g id="cart" transform="translate(190.000000, 150.000000)">
                <mask id="mask-2" fill="white">
                    <use xlink:href="#path-1"></use>
                </mask>
                <use id="icon" fill="#666" xlink:href="#path-1"></use>
            </g>
        </g>
    </g>
</svg>
