<svg xmlns="http://www.w3.org/2000/svg" width="69" height="69" viewBox="0 0 69 69">
    <path fill="#09F" fill-rule="evenodd" d="M34.5 69C15.446 69 0 53.554 0 34.5 0 15.446 15.446 0 34.5 0 53.554 0 69 15.446 69 34.5 69 53.554 53.554 69 34.5 69zm-3.89-15.53l20.15-35.657c.465-1.297.254-2.17-.632-2.617-.886-.448-1.688-.128-2.406.96l-20.117 29.01-9.378-7.173c-.866-.85-1.709-1.048-2.53-.592-.82.456-.917 1.311-.288 2.567L26.27 53.47C26.995 54.49 27.718 55 28.44 55c.723 0 1.447-.51 2.17-1.53z"/>
</svg>
