<svg xmlns="http://www.w3.org/2000/svg" width="50" height="50" viewBox="0 0 50 50">
    <path fill="#FFF" fill-rule="evenodd" d="M37.005 30h-6.6c.59 1.341 1.213 3.224 1.213 4.689 0 2.786-1.243 5.311-2.911 5.311-1.669 0 0-3.722-1.647-6.394-1.648-2.672-1.805-1.587-3.879-4.147C22 28 22 26 20 26V16c2.66 0 3.967-1.914 7.347-2h6.985c1.668 0 2.335 1.167 2.335 2.456 0 .358-.082.698-.227 1.002a2.33 2.33 0 0 1 2.227 2.331 2.33 2.33 0 0 1-.717 1.683 2.336 2.336 0 1 1 .525 4.507 2.33 2.33 0 0 1 .858 1.81c0 1.286-1.042 2.211-2.328 2.211zM10 26.502V15.498c0-.823.674-1.498 1.505-1.498h4.99c.837 0 1.505.67 1.505 1.498v11.004c0 .823-.674 1.498-1.505 1.498h-4.99C10.668 28 10 27.33 10 26.502zM15 16a1 1 0 1 0 0 2 1 1 0 0 0 0-2z" opacity=".8"/>
</svg>
