<svg xmlns="http://www.w3.org/2000/svg" width="50" height="50" viewBox="0 0 50 50">
    <path fill="#FFF" fill-rule="evenodd" d="M25 46C13.402 46 4 36.598 4 25S13.402 4 25 4s21 9.402 21 21-9.402 21-21 21zm12.005-16c1.286 0 2.328-.925 2.328-2.21a2.33 2.33 0 0 0-.858-1.81 2.336 2.336 0 0 0-.525-4.508 2.33 2.33 0 0 0 .717-1.683 2.33 2.33 0 0 0-2.227-2.33 2.32 2.32 0 0 0 .227-1.003C36.667 15.167 36 14 34.332 14h-6.985c-3.38.086-4.686 2-7.347 2v10c2 0 2 2 3.181 3.459 2.074 2.56 2.231 1.475 3.879 4.147C28.707 36.278 27.038 40 28.707 40c1.668 0 2.91-2.525 2.91-5.311 0-1.465-.621-3.348-1.212-4.689h6.6zM10 26.502c0 .827.668 1.498 1.505 1.498h4.99c.831 0 1.505-.675 1.505-1.498V15.498c0-.827-.668-1.498-1.505-1.498h-4.99c-.831 0-1.505.675-1.505 1.498v11.004zM15 16a1 1 0 1 1 0 2 1 1 0 0 1 0-2z"/>
</svg>
