<?xml version="1.0" encoding="UTF-8"?>
<svg width="40px" height="54px" viewBox="0 0 40 54" version="1.1" xmlns="http://www.w3.org/2000/svg" xmlns:xlink="http://www.w3.org/1999/xlink">
    <!-- Generator: sketchtool 51.2 (57519) - http://www.bohemiancoding.com/sketch -->
    <title>7BD34FB5-87ED-4660-AD78-4A6BA3A1D4A2</title>
    <desc>Created with sketchtool.</desc>
    <defs></defs>
    <g id="static" stroke="none" stroke-width="1" fill="none" fill-rule="evenodd">
        <g id="oll-10-static-07" transform="translate(-400.000000, -293.000000)">
            <g id="Group-10" transform="translate(380.000000, 273.000000)">
                <g id="Group-8" transform="translate(20.000000, 20.000000)">
                    <g id="Group-6">
                        <path d="M3,-1.42108547e-14 L26,-1.42108547e-14 L40,14 L40,51 C40,52.6568542 38.6568542,54 37,54 L3,54 C1.34314575,54 -4.27475054e-14,52.6568542 -4.6629367e-14,51 L-4.61852778e-14,3 C-4.63881839e-14,1.34314575 1.34314575,-1.39064955e-14 3,-1.42108547e-14 Z" id="Rectangle-2" fill="#333333"></path>
                        <path d="M26,0 L40,14 L29,14 C27.3431458,14 26,12.6568542 26,11 L26,0 Z" id="Rectangle-4" fill="#555555"></path>
                    </g>
                </g>
            </g>
        </g>
    </g>
</svg>