<?xml version="1.0" encoding="UTF-8"?>
<svg width="9px" height="14px" viewBox="0 0 9 14" version="1.1" xmlns="http://www.w3.org/2000/svg" xmlns:xlink="http://www.w3.org/1999/xlink">
    <!-- Generator: Sketch 51.2 (57519) - http://www.bohemiancoding.com/sketch -->
    <title>grivna</title>
    <desc>Created with Sketch.</desc>
    <defs></defs>
    <g id="proto" stroke="none" stroke-width="1" fill="none" fill-rule="evenodd">
        <g id="03-discount" transform="translate(-931.000000, -663.000000)" fill="#00CC22" fill-rule="nonzero">
            <g id="grivna" transform="translate(931.000000, 663.000000)">
                <path d="M4.9275,13.228 C2.7805,13.228 1.3555,12.088 1.3555,10.169 C1.3555,9.542 1.4885,9.01 1.6975,8.535 L0.2155,8.535 L0.2155,7.718 L1.5075,7.623 L2.3055,7.623 C2.7045,7.129 3.2175,6.73 3.7115,6.35 L0.2155,6.35 L0.2155,5.514 L1.5265,5.419 L4.9275,5.419 C5.5355,4.887 5.9915,4.298 5.9915,3.5 C5.9915,2.588 5.3455,1.904 4.3005,1.904 C3.3695,1.904 2.7805,2.322 2.1345,2.987 L1.3175,2.113 C2.0585,1.296 2.9325,0.65 4.3385,0.65 C6.2385,0.65 7.5305,1.79 7.5305,3.557 C7.5305,4.298 7.3025,4.906 6.9415,5.419 L8.7655,5.419 L8.7655,6.35 L6.1055,6.35 C5.5925,6.806 5.0225,7.205 4.4905,7.623 L8.7655,7.623 L8.7655,8.535 L3.5215,8.535 C3.1415,9.01 2.8755,9.561 2.8755,10.264 C2.8755,11.252 3.5975,11.974 4.9275,11.974 C5.9725,11.974 6.8465,11.404 7.5875,10.72 L8.2905,11.746 C7.4545,12.582 6.1815,13.228 4.9275,13.228 Z" id="₴"></path>
            </g>
        </g>
    </g>
</svg>