<svg xmlns="http://www.w3.org/2000/svg" xmlns:xlink="http://www.w3.org/1999/xlink" width="25" height="25" viewBox="0 0 25 25">
    <defs>
        <path id="a" d="M14.116 19.955a1.314 1.314 0 1 1 0-.5h2.265c.869 0 1.652-.365 2.205-.95l.395.309a3.525 3.525 0 0 1-2.6 1.14h-2.265zM3.574 4.872a.5.5 0 0 1 .701-.086l17.337 13.545a.5.5 0 0 1-.615.788L3.66 5.573a.5.5 0 0 1-.086-.7zm2.749 4.051a6.96 6.96 0 0 0-.338 1.605h.697c.189 0 .288.143.288.262v6.024c0 .148-.111.262-.29.262a2.973 2.973 0 0 1-2.964-2.963v-1.59c0-.948.672-1.748 1.563-1.947a7.654 7.654 0 0 1 .462-2.107l.582.454zm.703-3.257a7.749 7.749 0 0 1 5.61-2.398 7.755 7.755 0 0 1 6.913 4.234.75.75 0 0 1-.08.807 7.65 7.65 0 0 1 .523 2.257c.915.181 1.61.992 1.61 1.957v1.59c0 .862-.374 1.642-.968 2.185l-2.286-1.787v-3.72c0-.12.1-.263.288-.263h.65a6.95 6.95 0 0 0-.458-1.937.75.75 0 0 1-.615-.407 6.255 6.255 0 0 0-5.577-3.416 6.25 6.25 0 0 0-4.42 1.827l-1.19-.93z"/>
    </defs>
    <g fill="none" fill-rule="evenodd">
        <mask id="b" fill="#fff">
            <use xlink:href="#a"/>
        </mask>
        <g fill="#888" mask="url(#b)">
            <path d="M0 0h25v25H0z"/>
        </g>
    </g>
</svg>
