<svg xmlns="http://www.w3.org/2000/svg" xmlns:xlink="http://www.w3.org/1999/xlink" width="25" height="25" viewBox="0 0 25 25">
    <defs>
        <path id="a" d="M6 7h13a2 2 0 0 1 2 2v7a2 2 0 0 1-2 2H6a2 2 0 0 1-2-2V9a2 2 0 0 1 2-2zm1.14 6.734c.043 1.05.914 1.71 2.258 1.71 1.414 0 2.285-.695 2.285-1.832 0-.874-.488-1.363-1.62-1.601l-.68-.145c-.66-.14-.93-.34-.93-.687 0-.43.39-.703.98-.703.57 0 .985.297 1.04.742h1.109c-.036-1.004-.914-1.7-2.157-1.7-1.3 0-2.156.7-2.156 1.762 0 .86.504 1.395 1.531 1.61l.735.156c.691.149.972.356.972.715 0 .426-.433.723-1.046.723-.665 0-1.125-.293-1.18-.75H7.14zm5.856-4.075V15.3h2.22c1.687 0 2.644-1.027 2.644-2.86 0-1.765-.969-2.78-2.645-2.78h-2.219zm1.18 1.008h.852c1.023 0 1.629.653 1.629 1.793 0 1.192-.586 1.832-1.63 1.832h-.85v-3.625z"/>
    </defs>
    <g fill="none" fill-rule="evenodd">
        <mask id="b" fill="#fff">
            <use xlink:href="#a"/>
        </mask>
        <g fill="#888" mask="url(#b)">
            <path d="M0 0h25v25H0z"/>
            <path d="M0 0h25v25H0z"/>
        </g>
    </g>
</svg>
