<svg xmlns="http://www.w3.org/2000/svg" xmlns:xlink="http://www.w3.org/1999/xlink" width="28" height="26" viewBox="0 0 28 26">
    <defs>
        <path id="a" d="M0 25.997h26.706V.008H0z"/>
    </defs>
    <g fill="none" fill-rule="evenodd" opacity=".8">
        <g transform="translate(.643)">
            <mask id="b" fill="#fff">
                <use xlink:href="#a"/>
            </mask>
            <path fill="#FFF" d="M13.353.008c-3.627 0-4.081.015-5.505.078C6.426.15 5.456.37 4.606.69a6.566 6.566 0 0 0-2.365 1.5A6.355 6.355 0 0 0 .701 4.49c-.33.827-.556 1.772-.62 3.155C.014 9.032 0 9.475 0 13.004c0 3.53.015 3.972.08 5.358.065 1.384.29 2.328.621 3.155.341.855.798 1.58 1.54 2.302a6.567 6.567 0 0 0 2.365 1.499c.85.321 1.82.54 3.242.604 1.424.063 1.878.078 5.505.078 3.626 0 4.081-.015 5.505-.078 1.422-.063 2.392-.283 3.242-.604a6.567 6.567 0 0 0 2.365-1.5 6.356 6.356 0 0 0 1.54-2.301c.33-.827.556-1.771.62-3.155.065-1.386.08-1.828.08-5.358 0-3.53-.015-3.972-.08-5.358-.064-1.383-.29-2.328-.62-3.155a6.356 6.356 0 0 0-1.54-2.302A6.566 6.566 0 0 0 22.1.69c-.85-.32-1.82-.54-3.242-.604C17.434.023 16.98.008 13.353.008zm0 2.342c3.565 0 3.988.013 5.396.076 1.302.057 2.009.27 2.48.447a4.15 4.15 0 0 1 1.534.972c.468.455.757.888 1 1.494.182.458.4 1.147.46 2.414.063 1.37.077 1.781.077 5.251 0 3.47-.014 3.881-.078 5.252-.06 1.267-.277 1.955-.46 2.413a4.017 4.017 0 0 1-.999 1.494 4.15 4.15 0 0 1-1.535.972c-.47.178-1.177.39-2.48.448-1.407.062-1.83.075-5.395.075-3.566 0-3.988-.013-5.396-.075-1.302-.058-2.009-.27-2.48-.448a4.15 4.15 0 0 1-1.535-.972 4.018 4.018 0 0 1-.998-1.494c-.183-.458-.4-1.146-.46-2.413-.064-1.37-.078-1.782-.078-5.252 0-3.47.014-3.881.078-5.251.06-1.267.277-1.956.46-2.414.242-.606.531-1.039.998-1.494a4.15 4.15 0 0 1 1.536-.972c.47-.178 1.177-.39 2.48-.447 1.407-.063 1.83-.076 5.395-.076z" mask="url(#b)"/>
        </g>
        <path fill="#FFF" d="M13.996 17.336c-2.458 0-4.451-1.94-4.451-4.332s1.993-4.332 4.45-4.332c2.459 0 4.452 1.94 4.452 4.332 0 2.393-1.993 4.332-4.451 4.332zm0-11.005c-3.787 0-6.857 2.987-6.857 6.673s3.07 6.674 6.857 6.674c3.787 0 6.857-2.988 6.857-6.674 0-3.686-3.07-6.673-6.857-6.673zM22.726 6.067c0 .861-.717 1.56-1.602 1.56-.885 0-1.603-.699-1.603-1.56 0-.861.718-1.56 1.603-1.56s1.602.699 1.602 1.56"/>
    </g>
</svg>
