<?xml version="1.0" encoding="UTF-8"?>
<svg width="28px" height="40px" viewBox="0 0 28 40" version="1.1" xmlns="http://www.w3.org/2000/svg" xmlns:xlink="http://www.w3.org/1999/xlink">
    <!-- Generator: sketchtool 48.1 (47250) - http://www.bohemiancoding.com/sketch -->
    <title>B2642F24-031A-48E3-B6E7-2BB55D9D1201</title>
    <desc>Created with sketchtool.</desc>
    <defs></defs>
    <g id="ksf-02-matches-01" stroke="none" stroke-width="1" fill="none" fill-rule="evenodd" transform="translate(-1153.000000, -494.000000)" opacity="0.5">
        <g id="Group-14" transform="translate(1153.000000, 494.000000)" fill="#3B4952">
            <g id="Group-3">
                <g id="Group-96" transform="translate(0.000000, 9.000000)">
                    <path d="M15,20 L18,20 C18.5522847,20 19,20.4477153 19,21 C19,21.5522847 18.5522847,22 18,22 L10,22 C9.44771525,22 9,21.5522847 9,21 C9,20.4477153 9.44771525,20 10,20 L13,20 L13,16.9142474 C10.8554512,16.5428678 9.06571019,14.9959073 8.41305509,12.875513 C5.50381477,12.3675623 3.03380087,10.3429524 2,7.5 L0.975813137,4.68348613 C0.598334173,3.64541897 1.13384671,2.49789212 2.17191386,2.12041315 C2.39098444,2.04075112 2.62229495,2 2.85539998,2 L5.52941176,2 L5.33244215,1.25589256 C5.19111659,0.721996005 5.50935826,0.174620331 6.04325482,0.0332947721 C6.1267564,0.0111914129 6.21276988,1.58672891e-17 6.29914738,0 L21.7008526,6.66133815e-16 C22.2531374,5.64680752e-16 22.7008526,0.44771525 22.7008526,1 C22.7008526,1.0863775 22.6896612,1.17239098 22.6675579,1.25589256 L22.4705882,2 L25.1446,2 C26.2491695,2 27.1446,2.8954305 27.1446,4 C27.1446,4.23310503 27.1038489,4.46441555 27.0241869,4.68348613 L26,7.5 C24.9661991,10.3429524 22.4961852,12.3675623 19.5869449,12.875513 C18.9342898,14.9959073 17.1445488,16.5428678 15,16.9142474 L15,20 Z M6.05882353,4 L2.85539998,4 L3.87958685,6.81651387 C4.55259844,8.66729576 6.02583949,10.0621134 7.82387077,10.6679562 L6.05882353,4 Z M21.9411765,4 L20.1761292,10.6679562 C21.9741605,10.0621134 23.4474016,8.66729576 24.1204132,6.81651387 L25.1446,4 L21.9411765,4 Z" id="Combined-Shape"></path>
                </g>
            </g>
        </g>
    </g>
</svg>