<svg xmlns="http://www.w3.org/2000/svg" width="59" height="30" viewBox="0 0 59 30">
    <g fill="none" fill-rule="evenodd">
        <rect width="59" height="30" fill="#000" rx="4.737"/>
        <g fill="#FFF" fill-rule="nonzero">
            <path d="M20.64 18.604s-.031-.12-.107-.343c-.076-.223-.296-.295-.462-.367-.165-.072-.217-.261-.11-.344.255-.159.522-.298.8-.415.667-.323-.207-.45-.61-.728a1.333 1.333 0 0 1-.483-.549.397.397 0 0 1-.024-.065l-3.1-8.804h-2.961L10.5 15.707l-.021.052s-.21.477.052.686c.261.21.644.381-.025.687-.668.305-.93.415-1.033.487-.103.072-.155.227.024.26.18.035.18.227.097.44l-.131.343-1.378 3.893h2.959l1.377-3.9.128-.322c.082-.213.082-.405-.097-.44-.179-.034-.13-.192-.024-.26.107-.069.369-.168 1.033-.488.665-.319.238-.535.024-.686-.213-.151-.048-.687-.048-.687l1.616-4.582 1.722 4.867h-2.532a.411.411 0 0 0 .124.398c.214.165.644.381-.024.687-.668.305-.93.415-1.033.487-.103.072-.155.227.024.261s.179.227.096.44c-.082.212-.168.473-.168.473v.017h4.494l1.32 3.738h2.958l-1.378-3.92-.017-.034z"/>
            <path d="M24.332 3.158H5.648a2.486 2.486 0 0 0-2.49 2.482v18.62a2.486 2.486 0 0 0 2.49 2.483h18.684a2.486 2.486 0 0 0 2.49-2.482V5.64c0-.659-.263-1.29-.73-1.755a2.494 2.494 0 0 0-1.76-.727zm1.873 21.103a1.874 1.874 0 0 1-1.873 1.867H5.648a1.874 1.874 0 0 1-1.874-1.867V5.64c0-1.032.839-1.87 1.874-1.871h18.684a1.874 1.874 0 0 1 1.873 1.867v18.625zm7.973-15.532h-2.115v1.544h-.344v-3.34h.344v1.473h2.115V6.934h.345v3.35h-.345V8.729zm2.872-1.85c.461-.014.907.163 1.233.488.326.324.503.769.49 1.228a1.72 1.72 0 0 1-1.723 1.716 1.72 1.72 0 0 1-1.722-1.716c-.01-.458.17-.9.494-1.224a1.69 1.69 0 0 1 1.228-.492zm0 3.113c.372.012.732-.131.994-.395.261-.264.4-.625.384-.995 0-.758-.617-1.373-1.378-1.373-.76 0-1.377.615-1.377 1.373-.005.367.138.72.397.982.259.261.612.408.98.408zm2.539-3.058h.344l1.378 1.76 1.302-1.76h.323v3.35h-.344V7.455l-1.299 1.717h-.048L39.92 7.455v2.801h-.344l.014-3.322zm4.439 0h1.987v.343h-1.65V8.41h1.499v.343h-1.502v1.201h1.698v.343h-2.035l.003-3.363zm5.834-.055c.46-.014.907.163 1.233.488.326.324.503.769.49 1.228a1.72 1.72 0 0 1-1.723 1.716 1.72 1.72 0 0 1-1.722-1.716c-.01-.458.169-.9.494-1.224a1.69 1.69 0 0 1 1.228-.492zm0 3.113c.372.012.732-.131.994-.395.261-.264.4-.625.384-.995 0-.758-.617-1.373-1.378-1.373-.76 0-1.377.615-1.377 1.373-.005.367.138.72.397.982.259.261.612.408.98.408zm2.545-3.058h1.994v.343h-1.65v1.236h1.51v.343h-1.51v1.428h-.344v-3.35zm.892 6.971a.539.539 0 0 1 .915-.388.534.534 0 0 1-.377.917.531.531 0 0 1-.538-.529zm.538.443a.44.44 0 0 0 .326-.745.442.442 0 0 0-.636.613c.082.083.193.13.31.128v.004zm-.114-.137h-.093V13.6h.234c.145 0 .217.051.217.175a.158.158 0 0 1-.158.168l.175.268h-.103l-.162-.265h-.107l-.003.265zm.11-.344c.08 0 .148 0 .148-.1 0-.099-.069-.089-.134-.089h-.128v.19h.114zm-15.457 8.674h-2.483v-3.535h-1.612v3.535h-2.555v-9.11h2.559v3.388h1.612v-3.388h2.483l-.004 9.11zm11.366.041a4.68 4.68 0 0 0 4.652-4.664 4.63 4.63 0 0 0-3.613-4.516 4.647 4.647 0 0 0-5.217 2.514c0-1.136-1.123-2.478-2.435-2.478h-4.236v9.1h3.95a2.751 2.751 0 0 0 2.728-2.56 4.658 4.658 0 0 0 4.18 2.604h-.01zm-7.233-3.707a.78.78 0 0 1 0 1.538h-1.257v-1.534l1.257-.004zm0-3.432a.78.78 0 0 1 0 1.538h-1.257v-1.524l1.257-.014zm1.68 2.475c.362-.098.687-.297.938-.574-.065.421-.065.85 0 1.27a1.756 1.756 0 0 0-.937-.696zm3.238 0a2.32 2.32 0 0 1 2.325-2.317 2.32 2.32 0 0 1 2.325 2.317 2.32 2.32 0 0 1-2.325 2.317 2.32 2.32 0 0 1-2.325-2.317zm2.325 1.822c.74.003 1.41-.44 1.694-1.12.286-.681.13-1.466-.392-1.989a1.833 1.833 0 0 0-1.993-.398 1.823 1.823 0 0 0-1.13 1.685 1.826 1.826 0 0 0 1.824 1.815l-.003.007z"/>
        </g>
    </g>
</svg>
