<svg xmlns="http://www.w3.org/2000/svg" width="96" height="30" viewBox="0 0 96 30">
    <path fill="#FFF" fill-rule="evenodd" d="M15.217 22.048c-3.871 0-7.013-3.105-7.013-6.93 0-3.44 2.533-6.283 5.85-6.832-.046.324-.08.653-.08.99 0 3.83 3.141 6.932 7.014 6.932.398 0 .784-.04 1.164-.103-.487 3.357-3.402 5.943-6.935 5.943zM0 15.003C0 23.283 6.798 30 15.179 30c8.385 0 15.18-6.719 15.179-14.998C30.358 6.712 23.56 0 15.178 0 6.796 0 0 6.713 0 15.003zm45.945 6.078V2.076C46.018.04 44.63 0 41.022 0c-2.963 0-4.17.04-4.102 2.076v24.958c-.069 2.739.2 2.907 2.97 2.966h12.563c1.697 0 1.851-.78 1.697-4.39.154-3.419 0-4.529-1.697-4.529h-6.508zm22.973 0V2.076C68.99.04 67.603 0 63.995 0c-2.964 0-4.17.04-4.102 2.076v24.958c-.069 2.739.199 2.907 2.97 2.966h12.563c1.696 0 1.851-.78 1.696-4.39.155-3.419 0-4.529-1.696-4.529h-6.508zM84.22 0h-6.812a1.15 1.15 0 0 0-1.156 1.143c0 .63.518 1.141 1.156 1.141h2.12v7.64c0 .713.565 1.272 1.286 1.272.72 0 1.287-.559 1.287-1.272v-7.64h2.119a1.15 1.15 0 0 0 1.156-1.14A1.15 1.15 0 0 0 84.22 0zm10.608 0c-.579 0-.993.363-1.152.732L91.368 7.62 89.083.835C88.926.454 88.583 0 87.845 0c-.669 0-1.194.508-1.194 1.157 0 .208.077.418.16.617l.01.02 2.945 8.454c.288.663.773 1 1.437 1h.22c.667 0 1.151-.335 1.44-1l2.992-8.571.011-.025c.08-.182.134-.393.134-.537C96 .489 95.484 0 94.828 0z"/>
</svg>
