<svg xmlns="http://www.w3.org/2000/svg" width="17" height="18" viewBox="0 0 17 18">
    <path fill="#FFF" fill-rule="evenodd" d="M0 5.992C0 4.892.89 4 2 4h13c1.105 0 2 .9 2 1.992v7.016c0 1.1-.89 1.992-2 1.992H2c-1.105 0-2-.9-2-1.992V5.992zm7.598 6.249V6.604h-1.18v2.273H3.88V6.604H2.7v5.637h1.18V9.885h2.539v2.356h1.18zM9.444 6.6v5.64h2.219c1.687 0 2.644-1.027 2.644-2.859 0-1.765-.968-2.781-2.644-2.781H9.444zm1.18 1.008h.851c1.024 0 1.63.652 1.63 1.793 0 1.191-.587 1.832-1.63 1.832h-.851V7.608z"/>
</svg>
