<svg xmlns="http://www.w3.org/2000/svg" width="30" height="30" viewBox="0 0 30 30">
    <g fill="none" fill-rule="evenodd">
        <circle cx="15" cy="15" r="15" fill="#09F"/>
        <path fill="#FFF" d="M22.203 12c.771 0 1.397.555 1.397 1.326 0 .439-.2.83-.515 1.086a1.402 1.402 0 0 1-.315 2.705 1.399 1.399 0 0 1-.906 2.409c.087.181.136.385.136.6 0 .774-.4 1.474-1.4 1.474h-4.192c-2.028-.051-2.812-1.2-4.408-1.2v-6c1.2 0 1.2-1.2 1.909-2.075 1.244-1.536 1.338-.885 2.327-2.489.988-1.603-.013-3.836.988-3.836s1.747 1.515 1.747 3.187c0 .878-.374 2.008-.728 2.813h3.96zM6.6 13.2h3.6a.6.6 0 0 1 .6.6V21a.6.6 0 0 1-.6.6H6.6A.6.6 0 0 1 6 21v-7.2a.6.6 0 0 1 .6-.6zM9 20.4a.6.6 0 1 0 0-1.2.6.6 0 0 0 0 1.2z"/>
    </g>
</svg>
