<svg width="25px" height="50px" viewBox="0 0 25 50" version="1.1" xmlns="http://www.w3.org/2000/svg" xmlns:xlink="http://www.w3.org/1999/xlink">
    <g id="ui-kit" stroke="none" stroke-width="1" fill="none" fill-rule="evenodd">
        <g id="oll-ui-kit" transform="translate(-770.000000, -4104.000000)" fill="#FFFFFF">
            <g id="Group-91" transform="translate(770.000000, 4104.000000)">
                <g id="Group-104" transform="translate(0.000000, 19.000000)">
                    <path d="M7.41421356,6 L10.9497475,2.46446609 C11.3402718,2.0739418 11.3402718,1.44077682 10.9497475,1.05025253 L10.9497475,1.05025253 C10.5592232,0.65972824 9.9260582,0.65972824 9.53553391,1.05025253 L6,4.58578644 L2.46446609,1.05025253 C2.0739418,0.65972824 1.44077682,0.65972824 1.05025253,1.05025253 L1.05025253,1.05025253 C0.65972824,1.44077682 0.65972824,2.0739418 1.05025253,2.46446609 L4.58578644,6 L1.05025253,9.53553391 C0.65972824,9.9260582 0.65972824,10.5592232 1.05025253,10.9497475 L1.05025253,10.9497475 C1.44077682,11.3402718 2.0739418,11.3402718 2.46446609,10.9497475 L6,7.41421356 L9.53553391,10.9497475 C9.9260582,11.3402718 10.5592232,11.3402718 10.9497475,10.9497475 L10.9497475,10.9497475 C11.3402718,10.5592232 11.3402718,9.9260582 10.9497475,9.53553391 L7.41421356,6 Z" id="Combined-Shape"></path>
                </g>
            </g>
        </g>
    </g>
</svg>
