<svg xmlns="http://www.w3.org/2000/svg" width="66" height="66" viewBox="0 0 66 66">
    <defs>
        <linearGradient id="a" x1="0%" y1="100%" y2="0%">
            <stop offset="0%" stop-color="#8300FF"/>
            <stop offset="100%" stop-color="#C0F"/>
        </linearGradient>
    </defs>
    <path fill="url(#a)" fill-rule="evenodd" d="M32.395 63.758l-2.325 1.53a1.1 1.1 0 0 1-1.399-.157l-1.926-2.01a1.1 1.1 0 0 0-1.18-.269l-2.606.975a1.1 1.1 0 0 1-1.329-.465l-1.43-2.387a1.1 1.1 0 0 0-1.09-.525l-2.76.37a1.1 1.1 0 0 1-1.191-.749l-.864-2.646a1.1 1.1 0 0 0-.945-.754l-2.772-.253a1.1 1.1 0 0 1-.996-.996L9.33 52.65a1.1 1.1 0 0 0-.754-.945L5.93 50.84a1.1 1.1 0 0 1-.749-1.192l.37-2.759a1.1 1.1 0 0 0-.525-1.09l-2.387-1.43a1.1 1.1 0 0 1-.465-1.329l.975-2.607a1.1 1.1 0 0 0-.27-1.18L.868 37.33a1.1 1.1 0 0 1-.157-1.4l1.53-2.324a1.1 1.1 0 0 0 0-1.21L.712 30.07a1.1 1.1 0 0 1 .158-1.399l2.01-1.926a1.1 1.1 0 0 0 .269-1.18l-.975-2.606a1.1 1.1 0 0 1 .465-1.329l2.387-1.43a1.1 1.1 0 0 0 .525-1.09l-.37-2.76a1.1 1.1 0 0 1 .749-1.191l2.646-.864a1.1 1.1 0 0 0 .754-.945l.253-2.772a1.1 1.1 0 0 1 .996-.996l2.772-.253a1.1 1.1 0 0 0 .945-.754l.864-2.646a1.1 1.1 0 0 1 1.192-.749l2.759.37a1.1 1.1 0 0 0 1.09-.525l1.43-2.387a1.1 1.1 0 0 1 1.329-.465l2.607.975a1.1 1.1 0 0 0 1.18-.27L28.67.868a1.1 1.1 0 0 1 1.4-.157l2.324 1.53a1.1 1.1 0 0 0 1.21 0L35.93.712a1.1 1.1 0 0 1 1.399.158l1.926 2.01a1.1 1.1 0 0 0 1.18.269l2.606-.975a1.1 1.1 0 0 1 1.329.465l1.43 2.387a1.1 1.1 0 0 0 1.09.525l2.76-.37a1.1 1.1 0 0 1 1.191.749l.864 2.646a1.1 1.1 0 0 0 .945.754l2.772.253a1.1 1.1 0 0 1 .996.996l.253 2.772c.04.437.336.81.754.945l2.646.864a1.1 1.1 0 0 1 .749 1.192l-.37 2.759a1.1 1.1 0 0 0 .525 1.09l2.387 1.43a1.1 1.1 0 0 1 .465 1.329l-.975 2.607a1.1 1.1 0 0 0 .27 1.18l2.01 1.925a1.1 1.1 0 0 1 .157 1.4l-1.53 2.324a1.1 1.1 0 0 0 0 1.21l1.53 2.325a1.1 1.1 0 0 1-.158 1.399l-2.01 1.926a1.1 1.1 0 0 0-.269 1.18l.975 2.606a1.1 1.1 0 0 1-.465 1.329l-2.387 1.43a1.1 1.1 0 0 0-.525 1.09l.37 2.76a1.1 1.1 0 0 1-.749 1.191l-2.646.864a1.1 1.1 0 0 0-.754.945l-.253 2.772a1.1 1.1 0 0 1-.996.996l-2.772.253a1.1 1.1 0 0 0-.945.754l-.864 2.646a1.1 1.1 0 0 1-1.192.749l-2.759-.37a1.1 1.1 0 0 0-1.09.525l-1.43 2.387a1.1 1.1 0 0 1-1.329.465l-2.607-.975a1.1 1.1 0 0 0-1.18.27l-1.925 2.01a1.1 1.1 0 0 1-1.4.157l-2.324-1.53a1.1 1.1 0 0 0-1.21 0z"/>
</svg>
