<?xml version="1.0" encoding="UTF-8"?>
<svg width="26px" height="22px" viewBox="0 0 26 22" version="1.1" xmlns="http://www.w3.org/2000/svg" xmlns:xlink="http://www.w3.org/1999/xlink">
    <!-- Generator: Sketch 51 (57462) - http://www.bohemiancoding.com/sketch -->
    <title>play</title>
    <desc>Created with Sketch.</desc>
    <defs></defs>
    <g id="Page-1" stroke="none" stroke-width="1" fill="none" fill-rule="evenodd">
        <path d="M2.55232957,19.7299937 C1.05875457,19.1499039 2.0801785e-16,17.6985946 0,16 L0,6 C-2.0801785e-16,4.30140535 1.05875457,2.85009608 2.55232957,2.27000632 C2.1966994,3.10888351 2,4.03147095 2,5 L2,17 C2,17.968529 2.1966994,18.8911165 2.55232957,19.7299937 Z M9,0 L21,0 C23.7614237,-5.07265313e-16 26,2.23857625 26,5 L26,17 C26,19.7614237 23.7614237,22 21,22 L9,22 C6.23857625,22 4,19.7614237 4,17 L4,5 C4,2.23857625 6.23857625,5.07265313e-16 9,0 Z M12.4788521,5.80664662 C12.3319635,5.72652556 12.167319,5.68454219 12,5.68454219 C11.4477153,5.68454219 11,6.13225744 11,6.68454219 L11,15.3154578 C11,15.4827768 11.0419834,15.6474213 11.1221044,15.7943099 C11.3865672,16.2791583 11.9940038,16.4578161 12.4788521,16.1933534 L20.3905248,11.8778956 C20.5590913,11.7859502 20.6976229,11.6474186 20.7895682,11.4788521 C21.054031,10.9940038 20.8753731,10.3865672 20.3905248,10.1221044 L12.4788521,5.80664662 Z" id="play" fill="#FFFFFF" fill-rule="nonzero"></path>
    </g>
</svg>