<svg xmlns="http://www.w3.org/2000/svg" width="66" height="66" viewBox="0 0 66 66">
    <defs>
        <linearGradient id="a" x1="100%" x2="0%" y1="0%" y2="100%">
            <stop offset="0%" stop-color="#FF0"/>
            <stop offset="100%" stop-color="#FC0"/>
        </linearGradient>
    </defs>
    <path fill="url(#a)" fill-rule="evenodd" d="M30.79 64.004l-2.742 1.123a5.833 5.833 0 0 1-6.823-1.828l-1.814-2.344a5.833 5.833 0 0 0-3.827-2.21l-2.936-.399a5.833 5.833 0 0 1-4.994-4.994l-.4-2.936a5.833 5.833 0 0 0-2.21-3.827l-2.343-1.814a5.833 5.833 0 0 1-1.828-6.823l1.123-2.742a5.833 5.833 0 0 0 0-4.42L.873 28.048a5.833 5.833 0 0 1 1.828-6.823l2.344-1.814a5.833 5.833 0 0 0 2.21-3.827l.399-2.936a5.833 5.833 0 0 1 4.994-4.994l2.936-.4c1.516-.206 2.89-1 3.827-2.21l1.814-2.343A5.833 5.833 0 0 1 28.048.873l2.742 1.123c1.416.58 3.004.58 4.42 0L37.952.873a5.833 5.833 0 0 1 6.823 1.828l1.814 2.344a5.833 5.833 0 0 0 3.827 2.21l2.936.399a5.833 5.833 0 0 1 4.994 4.994l.4 2.936c.206 1.516 1 2.89 2.21 3.827l2.343 1.814a5.833 5.833 0 0 1 1.828 6.823l-1.123 2.742a5.833 5.833 0 0 0 0 4.42l1.123 2.742a5.833 5.833 0 0 1-1.828 6.823l-2.344 1.814a5.833 5.833 0 0 0-2.21 3.827l-.399 2.936a5.833 5.833 0 0 1-4.994 4.994l-2.936.4c-1.516.206-2.89 1-3.827 2.21l-1.814 2.343a5.833 5.833 0 0 1-6.823 1.828l-2.742-1.123a5.833 5.833 0 0 0-4.42 0z"/>
</svg>
