<svg xmlns="http://www.w3.org/2000/svg" xmlns:xlink="http://www.w3.org/1999/xlink" width="50" height="50" viewBox="0 0 50 50">
    <defs>
        <path id="a" d="M35.53 35.289c.788 1.894 2 3.853 3.637 5.878-4.494-.09-8.17-1.114-11.026-3.075a20.42 20.42 0 0 1-3.141.241c-9.389 0-17-6.342-17-14.166C8 16.343 15.611 10 25 10s17 6.343 17 14.167c0 4.51-2.529 8.527-6.47 11.122zM16.5 27a2.833 2.833 0 1 0 0-5.667 2.833 2.833 0 0 0 0 5.667zm8.5 0a2.833 2.833 0 1 0 0-5.667A2.833 2.833 0 0 0 25 27zm8.5 0a2.833 2.833 0 1 0 0-5.667 2.833 2.833 0 0 0 0 5.667z"/>
    </defs>
    <g fill="none" fill-rule="evenodd">
        <mask id="b" fill="#fff">
            <use xlink:href="#a"/>
        </mask>
        <g fill="#FFF" mask="url(#b)">
            <path d="M0 0h50v50H0z"/>
        </g>
    </g>
</svg>
