<svg xmlns="http://www.w3.org/2000/svg" width="74" height="73" viewBox="0 0 74 73">
    <path fill="#C0F" fill-rule="evenodd" d="M34.87 71.3l-1.722 1.084a4 4 0 0 1-5.338-.998l-1.215-1.632a4 4 0 0 0-3.972-1.539l-1.997.388a4 4 0 0 1-4.618-2.859l-.543-1.96a4 4 0 0 0-3.147-2.87l-2.003-.36a4 4 0 0 1-3.273-4.334l.202-2.025a4 4 0 0 0-1.898-3.812l-1.738-1.06A4 4 0 0 1 2.122 44.1l.92-1.815a4 4 0 0 0-.393-4.24L1.41 36.428a4 4 0 0 1 .501-5.407l1.514-1.36a4 4 0 0 0 1.165-4.097l-.57-1.953a4 4 0 0 1 2.42-4.862l1.903-.722a4 4 0 0 0 2.567-3.398l.173-2.028a4 4 0 0 1 4.014-3.658l2.034.014a4 4 0 0 0 3.621-2.242l.895-1.828a4 4 0 0 1 5.064-1.962l1.892.748a4 4 0 0 0 4.186-.782l1.495-1.381a4 4 0 0 1 5.43 0l1.495 1.38a4 4 0 0 0 4.186.783l1.892-.748a4 4 0 0 1 5.064 1.962l.895 1.828a4 4 0 0 0 3.62 2.242l2.035-.014a4 4 0 0 1 4.014 3.658l.173 2.028a4 4 0 0 0 2.567 3.398l1.903.722a4 4 0 0 1 2.42 4.862l-.57 1.953a4 4 0 0 0 1.165 4.096l1.514 1.36a4 4 0 0 1 .5 5.408l-1.237 1.615a4 4 0 0 0-.393 4.241l.92 1.815a4 4 0 0 1-1.486 5.224l-1.738 1.059a4 4 0 0 0-1.898 3.812l.202 2.025a4 4 0 0 1-3.273 4.334l-2.003.36a4 4 0 0 0-3.147 2.87l-.543 1.96a4 4 0 0 1-4.618 2.86l-1.997-.389a4 4 0 0 0-3.972 1.539l-1.215 1.632a4 4 0 0 1-5.338.998l-1.722-1.083a4 4 0 0 0-4.26 0z"/>
</svg>
