<?xml version="1.0" encoding="UTF-8"?>
<svg width="177px" height="100px" viewBox="0 0 177 100" version="1.1" xmlns="http://www.w3.org/2000/svg" xmlns:xlink="http://www.w3.org/1999/xlink">
    <!-- Generator: Sketch 50 (54983) - http://www.bohemiancoding.com/sketch -->
    <title>table</title>
    <desc>Created with Sketch.</desc>
    <defs></defs>
    <g id="other" stroke="none" stroke-width="1" fill="none" fill-rule="evenodd" opacity="0.200000003">
        <g id="oll-plugs-1" transform="translate(-568.000000, -631.000000)" fill="#FFFFFF" fill-rule="nonzero">
            <g id="table" transform="translate(568.000000, 631.000000)">
                <path d="M4.98591549,42.5 L4.98591549,37.5 L12.4647887,37.5 L12.4647887,42.5 L4.98591549,42.5 Z M164.535211,42.5 L164.535211,37.5 L172.014085,37.5 L172.014085,42.5 L164.535211,42.5 Z M162.042254,62.5 L174.507042,62.5 L174.507042,35 L162.042254,35 L162.042254,62.5 Z M17.4507042,75 L159.549296,75 L159.549296,12.5 L17.4507042,12.5 L17.4507042,75 Z M2.49295775,62.5 L14.9577465,62.5 L14.9577465,35 L2.49295775,35 L2.49295775,62.5 Z M69.8028169,7.5 L69.8028169,5 C69.8028169,2.24 72.036507,0 74.7887324,0 L99.7183099,0 C102.470535,0 104.704225,2.24 104.704225,5 L104.704225,7.5 L174.507042,7.5 C175.885648,7.5 177,8.6175 177,10 L177,97.5 C177,98.8825 175.885648,100 174.507042,100 L2.49295775,100 C1.11435211,100 0,98.8825 0,97.5 L0,10 C0,8.6175 1.11435211,7.5 2.49295775,7.5 L69.8028169,7.5 Z M20.2699901,84.28475 L23.0670887,94.16725 L25.3780606,94.16725 L25.3780606,80.52225 L23.3737225,80.52225 L23.3737225,88.68975 L21.0652437,80.52225 L18.2457085,80.52225 L18.2457085,94.16725 L20.2699901,94.16725 L20.2699901,84.28475 Z M28.2267634,83.79525 L28.2267634,90.89275 C28.2267634,93.07525 29.430862,94.32275 31.6371296,94.32275 C33.8458901,94.32275 35.0499887,93.07525 35.0499887,90.89275 L35.0499887,83.79525 C35.0499887,81.61275 33.8458901,80.36525 31.6371296,80.36525 C29.430862,80.36525 28.2267634,81.61275 28.2267634,83.79525 Z M30.4729183,91.03025 L30.4729183,83.66025 C30.4729183,82.68525 30.9241437,82.31525 31.6371296,82.31525 C32.3526085,82.31525 32.8038338,82.68525 32.8038338,83.66025 L32.8038338,91.03025 C32.8038338,92.00525 32.3526085,92.37275 31.6371296,92.37275 C30.9241437,92.37275 30.4729183,92.00525 30.4729183,91.03025 Z M47.2737085,90.21 L45.6183845,80.5225 L42.4922155,80.5225 L42.4922155,94.1675 L44.4541732,94.1675 L44.4541732,84.52 L46.1294408,94.1675 L48.2534408,94.1675 L49.8065535,84.3825 L49.8065535,94.1675 L51.9305535,94.1675 L51.9305535,80.5225 L48.8043845,80.5225 L47.2737085,90.21 Z M62.2566338,94.16625 L59.9680986,80.52125 L56.6773944,80.52125 L54.3888592,94.16625 L56.4530282,94.16625 L56.8419296,91.69125 L59.5991408,91.69125 L59.9855493,94.16625 L62.2566338,94.16625 Z M57.1286197,89.83875 L58.2105634,82.93875 L59.292507,89.83875 L57.1286197,89.83875 Z M64.0622831,80.5225 L64.0622831,82.47 L66.4106493,82.47 L66.4106493,94.1675 L68.6592972,94.1675 L68.6592972,82.47 L71.0076634,82.47 L71.0076634,80.5225 L64.0622831,80.5225 Z M79.9254718,89.0795 L77.8014718,89.0795 L77.8014718,91.0295 C77.8014718,92.0045 77.3527394,92.3545 76.6372606,92.3545 C75.9242746,92.3545 75.4730493,92.0045 75.4730493,91.0295 L75.4730493,83.6595 C75.4730493,82.6845 75.9242746,82.3145 76.6372606,82.3145 C77.3527394,82.3145 77.8014718,82.6845 77.8014718,83.6595 L77.8014718,85.122 L79.9254718,85.122 L79.9254718,83.797 C79.9254718,81.6145 78.7812042,80.367 76.5749366,80.367 C74.368669,80.367 73.2244014,81.6145 73.2244014,83.797 L73.2244014,90.8945 C73.2244014,93.077 74.368669,94.3245 76.5749366,94.3245 C78.7812042,94.3245 79.9254718,93.077 79.9254718,90.8945 L79.9254718,89.0795 Z M84.9649859,94.1675 L84.9649859,88.32 L87.5152817,88.32 L87.5152817,94.1675 L89.8038169,94.1675 L89.8038169,80.5225 L87.5152817,80.5225 L87.5152817,86.37 L84.9649859,86.37 L84.9649859,80.5225 L82.718831,80.5225 L82.718831,94.1675 L84.9649859,94.1675 Z M95.1073352,86.272 L95.1073352,82.4695 L98.9888704,82.4695 L98.9888704,80.522 L92.8611803,80.522 L92.8611803,94.167 L98.9888704,94.167 L98.9888704,92.2195 L95.1073352,92.2195 L95.1073352,88.222 L98.1911239,88.222 L98.1911239,86.272 L95.1073352,86.272 Z M104.821145,80.36625 C102.637314,80.36625 101.51299,81.61375 101.51299,83.79625 C101.51299,87.69625 105.905582,88.22375 105.905582,91.03125 C105.905582,92.00375 105.456849,92.35375 104.74137,92.35375 C104.025892,92.35375 103.577159,92.00375 103.577159,91.03125 L103.577159,90.05375 L101.450666,90.05375 L101.450666,90.89375 C101.450666,93.07625 102.594934,94.32375 104.801201,94.32375 C107.007469,94.32375 108.151737,93.07625 108.151737,90.89375 C108.151737,86.99375 103.759145,86.46625 103.759145,83.65875 C103.759145,82.68625 104.16799,82.31375 104.883469,82.31375 C105.598948,82.31375 106.007793,82.68625 106.007793,83.65875 L106.007793,84.22625 L108.131793,84.22625 L108.131793,83.79625 C108.131793,81.61375 107.007469,80.36625 104.821145,80.36625 Z M117.699765,86.5845 L117.699765,82.4695 L121.394328,82.4695 L121.394328,80.522 L115.45361,80.522 L115.45361,94.167 L117.699765,94.167 L117.699765,88.5345 L120.599075,88.5345 L120.599075,86.5845 L117.699765,86.5845 Z M123.716269,83.79525 L123.716269,90.89275 C123.716269,93.07525 124.920368,94.32275 127.126635,94.32275 C129.335396,94.32275 130.539494,93.07525 130.539494,90.89275 L130.539494,83.79525 C130.539494,81.61275 129.335396,80.36525 127.126635,80.36525 C124.920368,80.36525 123.716269,81.61275 123.716269,83.79525 Z M125.962424,91.03025 L125.962424,83.66025 C125.962424,82.68525 126.413649,82.31525 127.126635,82.31525 C127.842114,82.31525 128.293339,82.68525 128.293339,83.66025 L128.293339,91.03025 C128.293339,92.00525 127.842114,92.37275 127.126635,92.37275 C126.413649,92.37275 125.962424,92.00525 125.962424,91.03025 Z M135.55707,80.5225 L133.310915,80.5225 L133.310915,90.9125 C133.310915,93.095 134.455183,94.3425 136.658958,94.3425 C138.865225,94.3425 140.009493,93.095 140.009493,90.9125 L140.009493,80.5225 L137.885493,80.5225 L137.885493,91.05 C137.885493,92.025 137.436761,92.3725 136.721282,92.3725 C136.005803,92.3725 135.55707,92.025 135.55707,91.05 L135.55707,80.5225 Z M144.963997,84.28475 L147.761096,94.16725 L150.072068,94.16725 L150.072068,80.52225 L148.06773,80.52225 L148.06773,88.68975 L145.759251,80.52225 L142.939715,80.52225 L142.939715,94.16725 L144.963997,94.16725 L144.963997,84.28475 Z M153.105997,80.52325 L153.105997,94.16825 L156.658462,94.16825 C158.90711,94.16825 160.008997,92.97825 160.008997,90.79575 L160.008997,83.89325 C160.008997,81.71075 158.90711,80.52325 156.658462,80.52325 L153.105997,80.52325 Z M155.352152,82.47075 L156.618575,82.47075 C157.331561,82.47075 157.762842,82.82325 157.762842,83.79575 L157.762842,90.89325 C157.762842,91.86825 157.331561,92.21825 156.618575,92.21825 L155.352152,92.21825 L155.352152,82.47075 Z M99.7183099,2.5 L74.7887324,2.5 C73.4126197,2.5 72.2957746,3.62 72.2957746,5 L72.2957746,7.5 L102.211268,7.5 L102.211268,5 C102.211268,3.62 101.094423,2.5 99.7183099,2.5 Z" id="Combined-Shape"></path>
                <path d="M24.9295775,18.75 C24.9295775,19.44 24.3711549,20 23.6830986,20 C22.9950423,20 22.4366197,19.44 22.4366197,18.75 C22.4366197,18.06 22.9950423,17.5 23.6830986,17.5 C24.3711549,17.5 24.9295775,18.06 24.9295775,18.75 Z M24.9295775,23.75 C24.9295775,24.44 24.3711549,25 23.6830986,25 C22.9950423,25 22.4366197,24.44 22.4366197,23.75 C22.4366197,23.06 22.9950423,22.5 23.6830986,22.5 C24.3711549,22.5 24.9295775,23.06 24.9295775,23.75 Z M24.9295775,28.75 C24.9295775,29.44 24.3711549,30 23.6830986,30 C22.9950423,30 22.4366197,29.44 22.4366197,28.75 C22.4366197,28.06 22.9950423,27.5 23.6830986,27.5 C24.3711549,27.5 24.9295775,28.06 24.9295775,28.75 Z M24.9295775,33.75 C24.9295775,34.44 24.3711549,35 23.6830986,35 C22.9950423,35 22.4366197,34.44 22.4366197,33.75 C22.4366197,33.06 22.9950423,32.5 23.6830986,32.5 C24.3711549,32.5 24.9295775,33.06 24.9295775,33.75 Z M24.9295775,38.75 C24.9295775,39.44 24.3711549,40 23.6830986,40 C22.9950423,40 22.4366197,39.44 22.4366197,38.75 C22.4366197,38.06 22.9950423,37.5 23.6830986,37.5 C24.3711549,37.5 24.9295775,38.06 24.9295775,38.75 Z M24.9295775,43.75 C24.9295775,44.44 24.3711549,45 23.6830986,45 C22.9950423,45 22.4366197,44.44 22.4366197,43.75 C22.4366197,43.06 22.9950423,42.5 23.6830986,42.5 C24.3711549,42.5 24.9295775,43.06 24.9295775,43.75 Z M24.9295775,48.75 C24.9295775,49.44 24.3711549,50 23.6830986,50 C22.9950423,50 22.4366197,49.44 22.4366197,48.75 C22.4366197,48.06 22.9950423,47.5 23.6830986,47.5 C24.3711549,47.5 24.9295775,48.06 24.9295775,48.75 Z M24.9295775,53.75 C24.9295775,54.44 24.3711549,55 23.6830986,55 C22.9950423,55 22.4366197,54.44 22.4366197,53.75 C22.4366197,53.06 22.9950423,52.5 23.6830986,52.5 C24.3711549,52.5 24.9295775,53.06 24.9295775,53.75 Z M24.9295775,58.75 C24.9295775,59.44 24.3711549,60 23.6830986,60 C22.9950423,60 22.4366197,59.44 22.4366197,58.75 C22.4366197,58.06 22.9950423,57.5 23.6830986,57.5 C24.3711549,57.5 24.9295775,58.06 24.9295775,58.75 Z M24.9295775,63.75 C24.9295775,64.44 24.3711549,65 23.6830986,65 C22.9950423,65 22.4366197,64.44 22.4366197,63.75 C22.4366197,63.06 22.9950423,62.5 23.6830986,62.5 C24.3711549,62.5 24.9295775,63.06 24.9295775,63.75 Z M29.915493,18.75 C29.915493,19.44 29.3570704,20 28.6690141,20 C27.9809577,20 27.4225352,19.44 27.4225352,18.75 C27.4225352,18.06 27.9809577,17.5 28.6690141,17.5 C29.3570704,17.5 29.915493,18.06 29.915493,18.75 Z M29.915493,23.75 C29.915493,24.44 29.3570704,25 28.6690141,25 C27.9809577,25 27.4225352,24.44 27.4225352,23.75 C27.4225352,23.06 27.9809577,22.5 28.6690141,22.5 C29.3570704,22.5 29.915493,23.06 29.915493,23.75 Z M29.915493,28.75 C29.915493,29.44 29.3570704,30 28.6690141,30 C27.9809577,30 27.4225352,29.44 27.4225352,28.75 C27.4225352,28.06 27.9809577,27.5 28.6690141,27.5 C29.3570704,27.5 29.915493,28.06 29.915493,28.75 Z M29.915493,33.75 C29.915493,34.44 29.3570704,35 28.6690141,35 C27.9809577,35 27.4225352,34.44 27.4225352,33.75 C27.4225352,33.06 27.9809577,32.5 28.6690141,32.5 C29.3570704,32.5 29.915493,33.06 29.915493,33.75 Z M29.915493,38.75 C29.915493,39.44 29.3570704,40 28.6690141,40 C27.9809577,40 27.4225352,39.44 27.4225352,38.75 C27.4225352,38.06 27.9809577,37.5 28.6690141,37.5 C29.3570704,37.5 29.915493,38.06 29.915493,38.75 Z M29.915493,43.75 C29.915493,44.44 29.3570704,45 28.6690141,45 C27.9809577,45 27.4225352,44.44 27.4225352,43.75 C27.4225352,43.06 27.9809577,42.5 28.6690141,42.5 C29.3570704,42.5 29.915493,43.06 29.915493,43.75 Z M29.915493,48.75 C29.915493,49.44 29.3570704,50 28.6690141,50 C27.9809577,50 27.4225352,49.44 27.4225352,48.75 C27.4225352,48.06 27.9809577,47.5 28.6690141,47.5 C29.3570704,47.5 29.915493,48.06 29.915493,48.75 Z M29.915493,53.75 C29.915493,54.44 29.3570704,55 28.6690141,55 C27.9809577,55 27.4225352,54.44 27.4225352,53.75 C27.4225352,53.06 27.9809577,52.5 28.6690141,52.5 C29.3570704,52.5 29.915493,53.06 29.915493,53.75 Z M29.915493,58.75 C29.915493,59.44 29.3570704,60 28.6690141,60 C27.9809577,60 27.4225352,59.44 27.4225352,58.75 C27.4225352,58.06 27.9809577,57.5 28.6690141,57.5 C29.3570704,57.5 29.915493,58.06 29.915493,58.75 Z M29.915493,63.75 C29.915493,64.44 29.3570704,65 28.6690141,65 C27.9809577,65 27.4225352,64.44 27.4225352,63.75 C27.4225352,63.06 27.9809577,62.5 28.6690141,62.5 C29.3570704,62.5 29.915493,63.06 29.915493,63.75 Z M34.9014085,18.75 C34.9014085,19.44 34.3429859,20 33.6549296,20 C32.9668732,20 32.4084507,19.44 32.4084507,18.75 C32.4084507,18.06 32.9668732,17.5 33.6549296,17.5 C34.3429859,17.5 34.9014085,18.06 34.9014085,18.75 Z M34.9014085,23.75 C34.9014085,24.44 34.3429859,25 33.6549296,25 C32.9668732,25 32.4084507,24.44 32.4084507,23.75 C32.4084507,23.06 32.9668732,22.5 33.6549296,22.5 C34.3429859,22.5 34.9014085,23.06 34.9014085,23.75 Z M34.9014085,58.75 C34.9014085,59.44 34.3429859,60 33.6549296,60 C32.9668732,60 32.4084507,59.44 32.4084507,58.75 C32.4084507,58.06 32.9668732,57.5 33.6549296,57.5 C34.3429859,57.5 34.9014085,58.06 34.9014085,58.75 Z M34.9014085,63.75 C34.9014085,64.44 34.3429859,65 33.6549296,65 C32.9668732,65 32.4084507,64.44 32.4084507,63.75 C32.4084507,63.06 32.9668732,62.5 33.6549296,62.5 C34.3429859,62.5 34.9014085,63.06 34.9014085,63.75 Z M39.8873239,18.75 C39.8873239,19.44 39.3289014,20 38.6408451,20 C37.9527887,20 37.3943662,19.44 37.3943662,18.75 C37.3943662,18.06 37.9527887,17.5 38.6408451,17.5 C39.3289014,17.5 39.8873239,18.06 39.8873239,18.75 Z M39.8873239,23.75 C39.8873239,24.44 39.3289014,25 38.6408451,25 C37.9527887,25 37.3943662,24.44 37.3943662,23.75 C37.3943662,23.06 37.9527887,22.5 38.6408451,22.5 C39.3289014,22.5 39.8873239,23.06 39.8873239,23.75 Z M39.8873239,58.75 C39.8873239,59.44 39.3289014,60 38.6408451,60 C37.9527887,60 37.3943662,59.44 37.3943662,58.75 C37.3943662,58.06 37.9527887,57.5 38.6408451,57.5 C39.3289014,57.5 39.8873239,58.06 39.8873239,58.75 Z M39.8873239,63.75 C39.8873239,64.44 39.3289014,65 38.6408451,65 C37.9527887,65 37.3943662,64.44 37.3943662,63.75 C37.3943662,63.06 37.9527887,62.5 38.6408451,62.5 C39.3289014,62.5 39.8873239,63.06 39.8873239,63.75 Z M44.8732394,18.75 C44.8732394,19.44 44.3148169,20 43.6267606,20 C42.9387042,20 42.3802817,19.44 42.3802817,18.75 C42.3802817,18.06 42.9387042,17.5 43.6267606,17.5 C44.3148169,17.5 44.8732394,18.06 44.8732394,18.75 Z M44.8732394,23.75 C44.8732394,24.44 44.3148169,25 43.6267606,25 C42.9387042,25 42.3802817,24.44 42.3802817,23.75 C42.3802817,23.06 42.9387042,22.5 43.6267606,22.5 C44.3148169,22.5 44.8732394,23.06 44.8732394,23.75 Z M44.8732394,28.75 C44.8732394,29.44 44.3148169,30 43.6267606,30 C42.9387042,30 42.3802817,29.44 42.3802817,28.75 C42.3802817,28.06 42.9387042,27.5 43.6267606,27.5 C44.3148169,27.5 44.8732394,28.06 44.8732394,28.75 Z M44.8732394,33.75 C44.8732394,34.44 44.3148169,35 43.6267606,35 C42.9387042,35 42.3802817,34.44 42.3802817,33.75 C42.3802817,33.06 42.9387042,32.5 43.6267606,32.5 C44.3148169,32.5 44.8732394,33.06 44.8732394,33.75 Z M44.8732394,38.75 C44.8732394,39.44 44.3148169,40 43.6267606,40 C42.9387042,40 42.3802817,39.44 42.3802817,38.75 C42.3802817,38.06 42.9387042,37.5 43.6267606,37.5 C44.3148169,37.5 44.8732394,38.06 44.8732394,38.75 Z M44.8732394,43.75 C44.8732394,44.44 44.3148169,45 43.6267606,45 C42.9387042,45 42.3802817,44.44 42.3802817,43.75 C42.3802817,43.06 42.9387042,42.5 43.6267606,42.5 C44.3148169,42.5 44.8732394,43.06 44.8732394,43.75 Z M44.8732394,48.75 C44.8732394,49.44 44.3148169,50 43.6267606,50 C42.9387042,50 42.3802817,49.44 42.3802817,48.75 C42.3802817,48.06 42.9387042,47.5 43.6267606,47.5 C44.3148169,47.5 44.8732394,48.06 44.8732394,48.75 Z M44.8732394,53.75 C44.8732394,54.44 44.3148169,55 43.6267606,55 C42.9387042,55 42.3802817,54.44 42.3802817,53.75 C42.3802817,53.06 42.9387042,52.5 43.6267606,52.5 C44.3148169,52.5 44.8732394,53.06 44.8732394,53.75 Z M44.8732394,58.75 C44.8732394,59.44 44.3148169,60 43.6267606,60 C42.9387042,60 42.3802817,59.44 42.3802817,58.75 C42.3802817,58.06 42.9387042,57.5 43.6267606,57.5 C44.3148169,57.5 44.8732394,58.06 44.8732394,58.75 Z M44.8732394,63.75 C44.8732394,64.44 44.3148169,65 43.6267606,65 C42.9387042,65 42.3802817,64.44 42.3802817,63.75 C42.3802817,63.06 42.9387042,62.5 43.6267606,62.5 C44.3148169,62.5 44.8732394,63.06 44.8732394,63.75 Z M49.8591549,18.75 C49.8591549,19.44 49.3007324,20 48.6126761,20 C47.9246197,20 47.3661972,19.44 47.3661972,18.75 C47.3661972,18.06 47.9246197,17.5 48.6126761,17.5 C49.3007324,17.5 49.8591549,18.06 49.8591549,18.75 Z M49.8591549,23.75 C49.8591549,24.44 49.3007324,25 48.6126761,25 C47.9246197,25 47.3661972,24.44 47.3661972,23.75 C47.3661972,23.06 47.9246197,22.5 48.6126761,22.5 C49.3007324,22.5 49.8591549,23.06 49.8591549,23.75 Z M49.8591549,28.75 C49.8591549,29.44 49.3007324,30 48.6126761,30 C47.9246197,30 47.3661972,29.44 47.3661972,28.75 C47.3661972,28.06 47.9246197,27.5 48.6126761,27.5 C49.3007324,27.5 49.8591549,28.06 49.8591549,28.75 Z M49.8591549,33.75 C49.8591549,34.44 49.3007324,35 48.6126761,35 C47.9246197,35 47.3661972,34.44 47.3661972,33.75 C47.3661972,33.06 47.9246197,32.5 48.6126761,32.5 C49.3007324,32.5 49.8591549,33.06 49.8591549,33.75 Z M49.8591549,38.75 C49.8591549,39.44 49.3007324,40 48.6126761,40 C47.9246197,40 47.3661972,39.44 47.3661972,38.75 C47.3661972,38.06 47.9246197,37.5 48.6126761,37.5 C49.3007324,37.5 49.8591549,38.06 49.8591549,38.75 Z M49.8591549,43.75 C49.8591549,44.44 49.3007324,45 48.6126761,45 C47.9246197,45 47.3661972,44.44 47.3661972,43.75 C47.3661972,43.06 47.9246197,42.5 48.6126761,42.5 C49.3007324,42.5 49.8591549,43.06 49.8591549,43.75 Z M49.8591549,48.75 C49.8591549,49.44 49.3007324,50 48.6126761,50 C47.9246197,50 47.3661972,49.44 47.3661972,48.75 C47.3661972,48.06 47.9246197,47.5 48.6126761,47.5 C49.3007324,47.5 49.8591549,48.06 49.8591549,48.75 Z M49.8591549,53.75 C49.8591549,54.44 49.3007324,55 48.6126761,55 C47.9246197,55 47.3661972,54.44 47.3661972,53.75 C47.3661972,53.06 47.9246197,52.5 48.6126761,52.5 C49.3007324,52.5 49.8591549,53.06 49.8591549,53.75 Z M49.8591549,58.75 C49.8591549,59.44 49.3007324,60 48.6126761,60 C47.9246197,60 47.3661972,59.44 47.3661972,58.75 C47.3661972,58.06 47.9246197,57.5 48.6126761,57.5 C49.3007324,57.5 49.8591549,58.06 49.8591549,58.75 Z M49.8591549,63.75 C49.8591549,64.44 49.3007324,65 48.6126761,65 C47.9246197,65 47.3661972,64.44 47.3661972,63.75 C47.3661972,63.06 47.9246197,62.5 48.6126761,62.5 C49.3007324,62.5 49.8591549,63.06 49.8591549,63.75 Z M59.8309859,18.75 C59.8309859,19.44 59.2725634,20 58.584507,20 C57.8964507,20 57.3380282,19.44 57.3380282,18.75 C57.3380282,18.06 57.8964507,17.5 58.584507,17.5 C59.2725634,17.5 59.8309859,18.06 59.8309859,18.75 Z M59.8309859,23.75 C59.8309859,24.44 59.2725634,25 58.584507,25 C57.8964507,25 57.3380282,24.44 57.3380282,23.75 C57.3380282,23.06 57.8964507,22.5 58.584507,22.5 C59.2725634,22.5 59.8309859,23.06 59.8309859,23.75 Z M59.8309859,28.75 C59.8309859,29.44 59.2725634,30 58.584507,30 C57.8964507,30 57.3380282,29.44 57.3380282,28.75 C57.3380282,28.06 57.8964507,27.5 58.584507,27.5 C59.2725634,27.5 59.8309859,28.06 59.8309859,28.75 Z M59.8309859,33.75 C59.8309859,34.44 59.2725634,35 58.584507,35 C57.8964507,35 57.3380282,34.44 57.3380282,33.75 C57.3380282,33.06 57.8964507,32.5 58.584507,32.5 C59.2725634,32.5 59.8309859,33.06 59.8309859,33.75 Z M59.8309859,38.75 C59.8309859,39.44 59.2725634,40 58.584507,40 C57.8964507,40 57.3380282,39.44 57.3380282,38.75 C57.3380282,38.06 57.8964507,37.5 58.584507,37.5 C59.2725634,37.5 59.8309859,38.06 59.8309859,38.75 Z M59.8309859,43.75 C59.8309859,44.44 59.2725634,45 58.584507,45 C57.8964507,45 57.3380282,44.44 57.3380282,43.75 C57.3380282,43.06 57.8964507,42.5 58.584507,42.5 C59.2725634,42.5 59.8309859,43.06 59.8309859,43.75 Z M59.8309859,48.75 C59.8309859,49.44 59.2725634,50 58.584507,50 C57.8964507,50 57.3380282,49.44 57.3380282,48.75 C57.3380282,48.06 57.8964507,47.5 58.584507,47.5 C59.2725634,47.5 59.8309859,48.06 59.8309859,48.75 Z M59.8309859,53.75 C59.8309859,54.44 59.2725634,55 58.584507,55 C57.8964507,55 57.3380282,54.44 57.3380282,53.75 C57.3380282,53.06 57.8964507,52.5 58.584507,52.5 C59.2725634,52.5 59.8309859,53.06 59.8309859,53.75 Z M59.8309859,58.75 C59.8309859,59.44 59.2725634,60 58.584507,60 C57.8964507,60 57.3380282,59.44 57.3380282,58.75 C57.3380282,58.06 57.8964507,57.5 58.584507,57.5 C59.2725634,57.5 59.8309859,58.06 59.8309859,58.75 Z M59.8309859,63.75 C59.8309859,64.44 59.2725634,65 58.584507,65 C57.8964507,65 57.3380282,64.44 57.3380282,63.75 C57.3380282,63.06 57.8964507,62.5 58.584507,62.5 C59.2725634,62.5 59.8309859,63.06 59.8309859,63.75 Z M64.8169014,18.75 C64.8169014,19.44 64.2584789,20 63.5704225,20 C62.8823662,20 62.3239437,19.44 62.3239437,18.75 C62.3239437,18.06 62.8823662,17.5 63.5704225,17.5 C64.2584789,17.5 64.8169014,18.06 64.8169014,18.75 Z M64.8169014,23.75 C64.8169014,24.44 64.2584789,25 63.5704225,25 C62.8823662,25 62.3239437,24.44 62.3239437,23.75 C62.3239437,23.06 62.8823662,22.5 63.5704225,22.5 C64.2584789,22.5 64.8169014,23.06 64.8169014,23.75 Z M64.8169014,28.75 C64.8169014,29.44 64.2584789,30 63.5704225,30 C62.8823662,30 62.3239437,29.44 62.3239437,28.75 C62.3239437,28.06 62.8823662,27.5 63.5704225,27.5 C64.2584789,27.5 64.8169014,28.06 64.8169014,28.75 Z M64.8169014,33.75 C64.8169014,34.44 64.2584789,35 63.5704225,35 C62.8823662,35 62.3239437,34.44 62.3239437,33.75 C62.3239437,33.06 62.8823662,32.5 63.5704225,32.5 C64.2584789,32.5 64.8169014,33.06 64.8169014,33.75 Z M64.8169014,38.75 C64.8169014,39.44 64.2584789,40 63.5704225,40 C62.8823662,40 62.3239437,39.44 62.3239437,38.75 C62.3239437,38.06 62.8823662,37.5 63.5704225,37.5 C64.2584789,37.5 64.8169014,38.06 64.8169014,38.75 Z M64.8169014,43.75 C64.8169014,44.44 64.2584789,45 63.5704225,45 C62.8823662,45 62.3239437,44.44 62.3239437,43.75 C62.3239437,43.06 62.8823662,42.5 63.5704225,42.5 C64.2584789,42.5 64.8169014,43.06 64.8169014,43.75 Z M64.8169014,48.75 C64.8169014,49.44 64.2584789,50 63.5704225,50 C62.8823662,50 62.3239437,49.44 62.3239437,48.75 C62.3239437,48.06 62.8823662,47.5 63.5704225,47.5 C64.2584789,47.5 64.8169014,48.06 64.8169014,48.75 Z M64.8169014,53.75 C64.8169014,54.44 64.2584789,55 63.5704225,55 C62.8823662,55 62.3239437,54.44 62.3239437,53.75 C62.3239437,53.06 62.8823662,52.5 63.5704225,52.5 C64.2584789,52.5 64.8169014,53.06 64.8169014,53.75 Z M64.8169014,58.75 C64.8169014,59.44 64.2584789,60 63.5704225,60 C62.8823662,60 62.3239437,59.44 62.3239437,58.75 C62.3239437,58.06 62.8823662,57.5 63.5704225,57.5 C64.2584789,57.5 64.8169014,58.06 64.8169014,58.75 Z M64.8169014,63.75 C64.8169014,64.44 64.2584789,65 63.5704225,65 C62.8823662,65 62.3239437,64.44 62.3239437,63.75 C62.3239437,63.06 62.8823662,62.5 63.5704225,62.5 C64.2584789,62.5 64.8169014,63.06 64.8169014,63.75 Z M69.8028169,18.75 C69.8028169,19.44 69.2443944,20 68.556338,20 C67.8682817,20 67.3098592,19.44 67.3098592,18.75 C67.3098592,18.06 67.8682817,17.5 68.556338,17.5 C69.2443944,17.5 69.8028169,18.06 69.8028169,18.75 Z M69.8028169,23.75 C69.8028169,24.44 69.2443944,25 68.556338,25 C67.8682817,25 67.3098592,24.44 67.3098592,23.75 C67.3098592,23.06 67.8682817,22.5 68.556338,22.5 C69.2443944,22.5 69.8028169,23.06 69.8028169,23.75 Z M69.8028169,58.75 C69.8028169,59.44 69.2443944,60 68.556338,60 C67.8682817,60 67.3098592,59.44 67.3098592,58.75 C67.3098592,58.06 67.8682817,57.5 68.556338,57.5 C69.2443944,57.5 69.8028169,58.06 69.8028169,58.75 Z M69.8028169,63.75 C69.8028169,64.44 69.2443944,65 68.556338,65 C67.8682817,65 67.3098592,64.44 67.3098592,63.75 C67.3098592,63.06 67.8682817,62.5 68.556338,62.5 C69.2443944,62.5 69.8028169,63.06 69.8028169,63.75 Z M74.7887324,18.75 C74.7887324,19.44 74.2303099,20 73.5422535,20 C72.8541972,20 72.2957746,19.44 72.2957746,18.75 C72.2957746,18.06 72.8541972,17.5 73.5422535,17.5 C74.2303099,17.5 74.7887324,18.06 74.7887324,18.75 Z M74.7887324,23.75 C74.7887324,24.44 74.2303099,25 73.5422535,25 C72.8541972,25 72.2957746,24.44 72.2957746,23.75 C72.2957746,23.06 72.8541972,22.5 73.5422535,22.5 C74.2303099,22.5 74.7887324,23.06 74.7887324,23.75 Z M74.7887324,58.75 C74.7887324,59.44 74.2303099,60 73.5422535,60 C72.8541972,60 72.2957746,59.44 72.2957746,58.75 C72.2957746,58.06 72.8541972,57.5 73.5422535,57.5 C74.2303099,57.5 74.7887324,58.06 74.7887324,58.75 Z M74.7887324,63.75 C74.7887324,64.44 74.2303099,65 73.5422535,65 C72.8541972,65 72.2957746,64.44 72.2957746,63.75 C72.2957746,63.06 72.8541972,62.5 73.5422535,62.5 C74.2303099,62.5 74.7887324,63.06 74.7887324,63.75 Z M79.7746479,18.75 C79.7746479,19.44 79.2162254,20 78.528169,20 C77.8401127,20 77.2816901,19.44 77.2816901,18.75 C77.2816901,18.06 77.8401127,17.5 78.528169,17.5 C79.2162254,17.5 79.7746479,18.06 79.7746479,18.75 Z M79.7746479,23.75 C79.7746479,24.44 79.2162254,25 78.528169,25 C77.8401127,25 77.2816901,24.44 77.2816901,23.75 C77.2816901,23.06 77.8401127,22.5 78.528169,22.5 C79.2162254,22.5 79.7746479,23.06 79.7746479,23.75 Z M79.7746479,28.75 C79.7746479,29.44 79.2162254,30 78.528169,30 C77.8401127,30 77.2816901,29.44 77.2816901,28.75 C77.2816901,28.06 77.8401127,27.5 78.528169,27.5 C79.2162254,27.5 79.7746479,28.06 79.7746479,28.75 Z M79.7746479,33.75 C79.7746479,34.44 79.2162254,35 78.528169,35 C77.8401127,35 77.2816901,34.44 77.2816901,33.75 C77.2816901,33.06 77.8401127,32.5 78.528169,32.5 C79.2162254,32.5 79.7746479,33.06 79.7746479,33.75 Z M79.7746479,38.75 C79.7746479,39.44 79.2162254,40 78.528169,40 C77.8401127,40 77.2816901,39.44 77.2816901,38.75 C77.2816901,38.06 77.8401127,37.5 78.528169,37.5 C79.2162254,37.5 79.7746479,38.06 79.7746479,38.75 Z M79.7746479,43.75 C79.7746479,44.44 79.2162254,45 78.528169,45 C77.8401127,45 77.2816901,44.44 77.2816901,43.75 C77.2816901,43.06 77.8401127,42.5 78.528169,42.5 C79.2162254,42.5 79.7746479,43.06 79.7746479,43.75 Z M79.7746479,48.75 C79.7746479,49.44 79.2162254,50 78.528169,50 C77.8401127,50 77.2816901,49.44 77.2816901,48.75 C77.2816901,48.06 77.8401127,47.5 78.528169,47.5 C79.2162254,47.5 79.7746479,48.06 79.7746479,48.75 Z M79.7746479,53.75 C79.7746479,54.44 79.2162254,55 78.528169,55 C77.8401127,55 77.2816901,54.44 77.2816901,53.75 C77.2816901,53.06 77.8401127,52.5 78.528169,52.5 C79.2162254,52.5 79.7746479,53.06 79.7746479,53.75 Z M79.7746479,58.75 C79.7746479,59.44 79.2162254,60 78.528169,60 C77.8401127,60 77.2816901,59.44 77.2816901,58.75 C77.2816901,58.06 77.8401127,57.5 78.528169,57.5 C79.2162254,57.5 79.7746479,58.06 79.7746479,58.75 Z M79.7746479,63.75 C79.7746479,64.44 79.2162254,65 78.528169,65 C77.8401127,65 77.2816901,64.44 77.2816901,63.75 C77.2816901,63.06 77.8401127,62.5 78.528169,62.5 C79.2162254,62.5 79.7746479,63.06 79.7746479,63.75 Z M84.7605634,18.75 C84.7605634,19.44 84.2021408,20 83.5140845,20 C82.8260282,20 82.2676056,19.44 82.2676056,18.75 C82.2676056,18.06 82.8260282,17.5 83.5140845,17.5 C84.2021408,17.5 84.7605634,18.06 84.7605634,18.75 Z M84.7605634,23.75 C84.7605634,24.44 84.2021408,25 83.5140845,25 C82.8260282,25 82.2676056,24.44 82.2676056,23.75 C82.2676056,23.06 82.8260282,22.5 83.5140845,22.5 C84.2021408,22.5 84.7605634,23.06 84.7605634,23.75 Z M84.7605634,28.75 C84.7605634,29.44 84.2021408,30 83.5140845,30 C82.8260282,30 82.2676056,29.44 82.2676056,28.75 C82.2676056,28.06 82.8260282,27.5 83.5140845,27.5 C84.2021408,27.5 84.7605634,28.06 84.7605634,28.75 Z M84.7605634,33.75 C84.7605634,34.44 84.2021408,35 83.5140845,35 C82.8260282,35 82.2676056,34.44 82.2676056,33.75 C82.2676056,33.06 82.8260282,32.5 83.5140845,32.5 C84.2021408,32.5 84.7605634,33.06 84.7605634,33.75 Z M84.7605634,38.75 C84.7605634,39.44 84.2021408,40 83.5140845,40 C82.8260282,40 82.2676056,39.44 82.2676056,38.75 C82.2676056,38.06 82.8260282,37.5 83.5140845,37.5 C84.2021408,37.5 84.7605634,38.06 84.7605634,38.75 Z M84.7605634,43.75 C84.7605634,44.44 84.2021408,45 83.5140845,45 C82.8260282,45 82.2676056,44.44 82.2676056,43.75 C82.2676056,43.06 82.8260282,42.5 83.5140845,42.5 C84.2021408,42.5 84.7605634,43.06 84.7605634,43.75 Z M84.7605634,48.75 C84.7605634,49.44 84.2021408,50 83.5140845,50 C82.8260282,50 82.2676056,49.44 82.2676056,48.75 C82.2676056,48.06 82.8260282,47.5 83.5140845,47.5 C84.2021408,47.5 84.7605634,48.06 84.7605634,48.75 Z M84.7605634,53.75 C84.7605634,54.44 84.2021408,55 83.5140845,55 C82.8260282,55 82.2676056,54.44 82.2676056,53.75 C82.2676056,53.06 82.8260282,52.5 83.5140845,52.5 C84.2021408,52.5 84.7605634,53.06 84.7605634,53.75 Z M84.7605634,58.75 C84.7605634,59.44 84.2021408,60 83.5140845,60 C82.8260282,60 82.2676056,59.44 82.2676056,58.75 C82.2676056,58.06 82.8260282,57.5 83.5140845,57.5 C84.2021408,57.5 84.7605634,58.06 84.7605634,58.75 Z M84.7605634,63.75 C84.7605634,64.44 84.2021408,65 83.5140845,65 C82.8260282,65 82.2676056,64.44 82.2676056,63.75 C82.2676056,63.06 82.8260282,62.5 83.5140845,62.5 C84.2021408,62.5 84.7605634,63.06 84.7605634,63.75 Z M94.7323944,18.75 C94.7323944,19.44 94.1739718,20 93.4859155,20 C92.7978592,20 92.2394366,19.44 92.2394366,18.75 C92.2394366,18.06 92.7978592,17.5 93.4859155,17.5 C94.1739718,17.5 94.7323944,18.06 94.7323944,18.75 Z M94.7323944,23.75 C94.7323944,24.44 94.1739718,25 93.4859155,25 C92.7978592,25 92.2394366,24.44 92.2394366,23.75 C92.2394366,23.06 92.7978592,22.5 93.4859155,22.5 C94.1739718,22.5 94.7323944,23.06 94.7323944,23.75 Z M94.7323944,28.75 C94.7323944,29.44 94.1739718,30 93.4859155,30 C92.7978592,30 92.2394366,29.44 92.2394366,28.75 C92.2394366,28.06 92.7978592,27.5 93.4859155,27.5 C94.1739718,27.5 94.7323944,28.06 94.7323944,28.75 Z M94.7323944,33.75 C94.7323944,34.44 94.1739718,35 93.4859155,35 C92.7978592,35 92.2394366,34.44 92.2394366,33.75 C92.2394366,33.06 92.7978592,32.5 93.4859155,32.5 C94.1739718,32.5 94.7323944,33.06 94.7323944,33.75 Z M94.7323944,38.75 C94.7323944,39.44 94.1739718,40 93.4859155,40 C92.7978592,40 92.2394366,39.44 92.2394366,38.75 C92.2394366,38.06 92.7978592,37.5 93.4859155,37.5 C94.1739718,37.5 94.7323944,38.06 94.7323944,38.75 Z M94.7323944,43.75 C94.7323944,44.44 94.1739718,45 93.4859155,45 C92.7978592,45 92.2394366,44.44 92.2394366,43.75 C92.2394366,43.06 92.7978592,42.5 93.4859155,42.5 C94.1739718,42.5 94.7323944,43.06 94.7323944,43.75 Z M94.7323944,48.75 C94.7323944,49.44 94.1739718,50 93.4859155,50 C92.7978592,50 92.2394366,49.44 92.2394366,48.75 C92.2394366,48.06 92.7978592,47.5 93.4859155,47.5 C94.1739718,47.5 94.7323944,48.06 94.7323944,48.75 Z M94.7323944,53.75 C94.7323944,54.44 94.1739718,55 93.4859155,55 C92.7978592,55 92.2394366,54.44 92.2394366,53.75 C92.2394366,53.06 92.7978592,52.5 93.4859155,52.5 C94.1739718,52.5 94.7323944,53.06 94.7323944,53.75 Z M94.7323944,58.75 C94.7323944,59.44 94.1739718,60 93.4859155,60 C92.7978592,60 92.2394366,59.44 92.2394366,58.75 C92.2394366,58.06 92.7978592,57.5 93.4859155,57.5 C94.1739718,57.5 94.7323944,58.06 94.7323944,58.75 Z M94.7323944,63.75 C94.7323944,64.44 94.1739718,65 93.4859155,65 C92.7978592,65 92.2394366,64.44 92.2394366,63.75 C92.2394366,63.06 92.7978592,62.5 93.4859155,62.5 C94.1739718,62.5 94.7323944,63.06 94.7323944,63.75 Z M99.7183099,18.75 C99.7183099,19.44 99.1598873,20 98.471831,20 C97.7837746,20 97.2253521,19.44 97.2253521,18.75 C97.2253521,18.06 97.7837746,17.5 98.471831,17.5 C99.1598873,17.5 99.7183099,18.06 99.7183099,18.75 Z M99.7183099,23.75 C99.7183099,24.44 99.1598873,25 98.471831,25 C97.7837746,25 97.2253521,24.44 97.2253521,23.75 C97.2253521,23.06 97.7837746,22.5 98.471831,22.5 C99.1598873,22.5 99.7183099,23.06 99.7183099,23.75 Z M99.7183099,28.75 C99.7183099,29.44 99.1598873,30 98.471831,30 C97.7837746,30 97.2253521,29.44 97.2253521,28.75 C97.2253521,28.06 97.7837746,27.5 98.471831,27.5 C99.1598873,27.5 99.7183099,28.06 99.7183099,28.75 Z M99.7183099,33.75 C99.7183099,34.44 99.1598873,35 98.471831,35 C97.7837746,35 97.2253521,34.44 97.2253521,33.75 C97.2253521,33.06 97.7837746,32.5 98.471831,32.5 C99.1598873,32.5 99.7183099,33.06 99.7183099,33.75 Z M99.7183099,38.75 C99.7183099,39.44 99.1598873,40 98.471831,40 C97.7837746,40 97.2253521,39.44 97.2253521,38.75 C97.2253521,38.06 97.7837746,37.5 98.471831,37.5 C99.1598873,37.5 99.7183099,38.06 99.7183099,38.75 Z M99.7183099,43.75 C99.7183099,44.44 99.1598873,45 98.471831,45 C97.7837746,45 97.2253521,44.44 97.2253521,43.75 C97.2253521,43.06 97.7837746,42.5 98.471831,42.5 C99.1598873,42.5 99.7183099,43.06 99.7183099,43.75 Z M99.7183099,48.75 C99.7183099,49.44 99.1598873,50 98.471831,50 C97.7837746,50 97.2253521,49.44 97.2253521,48.75 C97.2253521,48.06 97.7837746,47.5 98.471831,47.5 C99.1598873,47.5 99.7183099,48.06 99.7183099,48.75 Z M99.7183099,53.75 C99.7183099,54.44 99.1598873,55 98.471831,55 C97.7837746,55 97.2253521,54.44 97.2253521,53.75 C97.2253521,53.06 97.7837746,52.5 98.471831,52.5 C99.1598873,52.5 99.7183099,53.06 99.7183099,53.75 Z M99.7183099,58.75 C99.7183099,59.44 99.1598873,60 98.471831,60 C97.7837746,60 97.2253521,59.44 97.2253521,58.75 C97.2253521,58.06 97.7837746,57.5 98.471831,57.5 C99.1598873,57.5 99.7183099,58.06 99.7183099,58.75 Z M99.7183099,63.75 C99.7183099,64.44 99.1598873,65 98.471831,65 C97.7837746,65 97.2253521,64.44 97.2253521,63.75 C97.2253521,63.06 97.7837746,62.5 98.471831,62.5 C99.1598873,62.5 99.7183099,63.06 99.7183099,63.75 Z M104.704225,18.75 C104.704225,19.44 104.145803,20 103.457746,20 C102.76969,20 102.211268,19.44 102.211268,18.75 C102.211268,18.06 102.76969,17.5 103.457746,17.5 C104.145803,17.5 104.704225,18.06 104.704225,18.75 Z M104.704225,23.75 C104.704225,24.44 104.145803,25 103.457746,25 C102.76969,25 102.211268,24.44 102.211268,23.75 C102.211268,23.06 102.76969,22.5 103.457746,22.5 C104.145803,22.5 104.704225,23.06 104.704225,23.75 Z M104.704225,38.75 C104.704225,39.44 104.145803,40 103.457746,40 C102.76969,40 102.211268,39.44 102.211268,38.75 C102.211268,38.06 102.76969,37.5 103.457746,37.5 C104.145803,37.5 104.704225,38.06 104.704225,38.75 Z M104.704225,43.75 C104.704225,44.44 104.145803,45 103.457746,45 C102.76969,45 102.211268,44.44 102.211268,43.75 C102.211268,43.06 102.76969,42.5 103.457746,42.5 C104.145803,42.5 104.704225,43.06 104.704225,43.75 Z M109.690141,18.75 C109.690141,19.44 109.131718,20 108.443662,20 C107.755606,20 107.197183,19.44 107.197183,18.75 C107.197183,18.06 107.755606,17.5 108.443662,17.5 C109.131718,17.5 109.690141,18.06 109.690141,18.75 Z M109.690141,23.75 C109.690141,24.44 109.131718,25 108.443662,25 C107.755606,25 107.197183,24.44 107.197183,23.75 C107.197183,23.06 107.755606,22.5 108.443662,22.5 C109.131718,22.5 109.690141,23.06 109.690141,23.75 Z M109.690141,38.75 C109.690141,39.44 109.131718,40 108.443662,40 C107.755606,40 107.197183,39.44 107.197183,38.75 C107.197183,38.06 107.755606,37.5 108.443662,37.5 C109.131718,37.5 109.690141,38.06 109.690141,38.75 Z M109.690141,43.75 C109.690141,44.44 109.131718,45 108.443662,45 C107.755606,45 107.197183,44.44 107.197183,43.75 C107.197183,43.06 107.755606,42.5 108.443662,42.5 C109.131718,42.5 109.690141,43.06 109.690141,43.75 Z M114.676056,18.75 C114.676056,19.44 114.117634,20 113.429577,20 C112.741521,20 112.183099,19.44 112.183099,18.75 C112.183099,18.06 112.741521,17.5 113.429577,17.5 C114.117634,17.5 114.676056,18.06 114.676056,18.75 Z M114.676056,23.75 C114.676056,24.44 114.117634,25 113.429577,25 C112.741521,25 112.183099,24.44 112.183099,23.75 C112.183099,23.06 112.741521,22.5 113.429577,22.5 C114.117634,22.5 114.676056,23.06 114.676056,23.75 Z M114.676056,28.75 C114.676056,29.44 114.117634,30 113.429577,30 C112.741521,30 112.183099,29.44 112.183099,28.75 C112.183099,28.06 112.741521,27.5 113.429577,27.5 C114.117634,27.5 114.676056,28.06 114.676056,28.75 Z M114.676056,33.75 C114.676056,34.44 114.117634,35 113.429577,35 C112.741521,35 112.183099,34.44 112.183099,33.75 C112.183099,33.06 112.741521,32.5 113.429577,32.5 C114.117634,32.5 114.676056,33.06 114.676056,33.75 Z M114.676056,38.75 C114.676056,39.44 114.117634,40 113.429577,40 C112.741521,40 112.183099,39.44 112.183099,38.75 C112.183099,38.06 112.741521,37.5 113.429577,37.5 C114.117634,37.5 114.676056,38.06 114.676056,38.75 Z M114.676056,43.75 C114.676056,44.44 114.117634,45 113.429577,45 C112.741521,45 112.183099,44.44 112.183099,43.75 C112.183099,43.06 112.741521,42.5 113.429577,42.5 C114.117634,42.5 114.676056,43.06 114.676056,43.75 Z M119.661972,18.75 C119.661972,19.44 119.103549,20 118.415493,20 C117.727437,20 117.169014,19.44 117.169014,18.75 C117.169014,18.06 117.727437,17.5 118.415493,17.5 C119.103549,17.5 119.661972,18.06 119.661972,18.75 Z M119.661972,23.75 C119.661972,24.44 119.103549,25 118.415493,25 C117.727437,25 117.169014,24.44 117.169014,23.75 C117.169014,23.06 117.727437,22.5 118.415493,22.5 C119.103549,22.5 119.661972,23.06 119.661972,23.75 Z M119.661972,28.75 C119.661972,29.44 119.103549,30 118.415493,30 C117.727437,30 117.169014,29.44 117.169014,28.75 C117.169014,28.06 117.727437,27.5 118.415493,27.5 C119.103549,27.5 119.661972,28.06 119.661972,28.75 Z M119.661972,33.75 C119.661972,34.44 119.103549,35 118.415493,35 C117.727437,35 117.169014,34.44 117.169014,33.75 C117.169014,33.06 117.727437,32.5 118.415493,32.5 C119.103549,32.5 119.661972,33.06 119.661972,33.75 Z M119.661972,38.75 C119.661972,39.44 119.103549,40 118.415493,40 C117.727437,40 117.169014,39.44 117.169014,38.75 C117.169014,38.06 117.727437,37.5 118.415493,37.5 C119.103549,37.5 119.661972,38.06 119.661972,38.75 Z M119.661972,43.75 C119.661972,44.44 119.103549,45 118.415493,45 C117.727437,45 117.169014,44.44 117.169014,43.75 C117.169014,43.06 117.727437,42.5 118.415493,42.5 C119.103549,42.5 119.661972,43.06 119.661972,43.75 Z M134.619718,18.75 C134.619718,19.44 134.061296,20 133.373239,20 C132.685183,20 132.126761,19.44 132.126761,18.75 C132.126761,18.06 132.685183,17.5 133.373239,17.5 C134.061296,17.5 134.619718,18.06 134.619718,18.75 Z M134.619718,23.75 C134.619718,24.44 134.061296,25 133.373239,25 C132.685183,25 132.126761,24.44 132.126761,23.75 C132.126761,23.06 132.685183,22.5 133.373239,22.5 C134.061296,22.5 134.619718,23.06 134.619718,23.75 Z M134.619718,28.75 C134.619718,29.44 134.061296,30 133.373239,30 C132.685183,30 132.126761,29.44 132.126761,28.75 C132.126761,28.06 132.685183,27.5 133.373239,27.5 C134.061296,27.5 134.619718,28.06 134.619718,28.75 Z M134.619718,33.75 C134.619718,34.44 134.061296,35 133.373239,35 C132.685183,35 132.126761,34.44 132.126761,33.75 C132.126761,33.06 132.685183,32.5 133.373239,32.5 C134.061296,32.5 134.619718,33.06 134.619718,33.75 Z M134.619718,38.75 C134.619718,39.44 134.061296,40 133.373239,40 C132.685183,40 132.126761,39.44 132.126761,38.75 C132.126761,38.06 132.685183,37.5 133.373239,37.5 C134.061296,37.5 134.619718,38.06 134.619718,38.75 Z M134.619718,43.75 C134.619718,44.44 134.061296,45 133.373239,45 C132.685183,45 132.126761,44.44 132.126761,43.75 C132.126761,43.06 132.685183,42.5 133.373239,42.5 C134.061296,42.5 134.619718,43.06 134.619718,43.75 Z M134.619718,58.75 C134.619718,59.44 134.061296,60 133.373239,60 C132.685183,60 132.126761,59.44 132.126761,58.75 C132.126761,58.06 132.685183,57.5 133.373239,57.5 C134.061296,57.5 134.619718,58.06 134.619718,58.75 Z M134.619718,63.75 C134.619718,64.44 134.061296,65 133.373239,65 C132.685183,65 132.126761,64.44 132.126761,63.75 C132.126761,63.06 132.685183,62.5 133.373239,62.5 C134.061296,62.5 134.619718,63.06 134.619718,63.75 Z M129.633803,18.75 C129.633803,19.44 129.07538,20 128.387324,20 C127.699268,20 127.140845,19.44 127.140845,18.75 C127.140845,18.06 127.699268,17.5 128.387324,17.5 C129.07538,17.5 129.633803,18.06 129.633803,18.75 Z M129.633803,23.75 C129.633803,24.44 129.07538,25 128.387324,25 C127.699268,25 127.140845,24.44 127.140845,23.75 C127.140845,23.06 127.699268,22.5 128.387324,22.5 C129.07538,22.5 129.633803,23.06 129.633803,23.75 Z M129.633803,28.75 C129.633803,29.44 129.07538,30 128.387324,30 C127.699268,30 127.140845,29.44 127.140845,28.75 C127.140845,28.06 127.699268,27.5 128.387324,27.5 C129.07538,27.5 129.633803,28.06 129.633803,28.75 Z M129.633803,33.75 C129.633803,34.44 129.07538,35 128.387324,35 C127.699268,35 127.140845,34.44 127.140845,33.75 C127.140845,33.06 127.699268,32.5 128.387324,32.5 C129.07538,32.5 129.633803,33.06 129.633803,33.75 Z M129.633803,38.75 C129.633803,39.44 129.07538,40 128.387324,40 C127.699268,40 127.140845,39.44 127.140845,38.75 C127.140845,38.06 127.699268,37.5 128.387324,37.5 C129.07538,37.5 129.633803,38.06 129.633803,38.75 Z M129.633803,43.75 C129.633803,44.44 129.07538,45 128.387324,45 C127.699268,45 127.140845,44.44 127.140845,43.75 C127.140845,43.06 127.699268,42.5 128.387324,42.5 C129.07538,42.5 129.633803,43.06 129.633803,43.75 Z M129.633803,58.75 C129.633803,59.44 129.07538,60 128.387324,60 C127.699268,60 127.140845,59.44 127.140845,58.75 C127.140845,58.06 127.699268,57.5 128.387324,57.5 C129.07538,57.5 129.633803,58.06 129.633803,58.75 Z M129.633803,63.75 C129.633803,64.44 129.07538,65 128.387324,65 C127.699268,65 127.140845,64.44 127.140845,63.75 C127.140845,63.06 127.699268,62.5 128.387324,62.5 C129.07538,62.5 129.633803,63.06 129.633803,63.75 Z M139.605634,18.75 C139.605634,19.44 139.047211,20 138.359155,20 C137.671099,20 137.112676,19.44 137.112676,18.75 C137.112676,18.06 137.671099,17.5 138.359155,17.5 C139.047211,17.5 139.605634,18.06 139.605634,18.75 Z M139.605634,23.75 C139.605634,24.44 139.047211,25 138.359155,25 C137.671099,25 137.112676,24.44 137.112676,23.75 C137.112676,23.06 137.671099,22.5 138.359155,22.5 C139.047211,22.5 139.605634,23.06 139.605634,23.75 Z M139.605634,38.75 C139.605634,39.44 139.047211,40 138.359155,40 C137.671099,40 137.112676,39.44 137.112676,38.75 C137.112676,38.06 137.671099,37.5 138.359155,37.5 C139.047211,37.5 139.605634,38.06 139.605634,38.75 Z M139.605634,43.75 C139.605634,44.44 139.047211,45 138.359155,45 C137.671099,45 137.112676,44.44 137.112676,43.75 C137.112676,43.06 137.671099,42.5 138.359155,42.5 C139.047211,42.5 139.605634,43.06 139.605634,43.75 Z M139.605634,58.75 C139.605634,59.44 139.047211,60 138.359155,60 C137.671099,60 137.112676,59.44 137.112676,58.75 C137.112676,58.06 137.671099,57.5 138.359155,57.5 C139.047211,57.5 139.605634,58.06 139.605634,58.75 Z M139.605634,63.75 C139.605634,64.44 139.047211,65 138.359155,65 C137.671099,65 137.112676,64.44 137.112676,63.75 C137.112676,63.06 137.671099,62.5 138.359155,62.5 C139.047211,62.5 139.605634,63.06 139.605634,63.75 Z M144.591549,18.75 C144.591549,19.44 144.033127,20 143.34507,20 C142.657014,20 142.098592,19.44 142.098592,18.75 C142.098592,18.06 142.657014,17.5 143.34507,17.5 C144.033127,17.5 144.591549,18.06 144.591549,18.75 Z M144.591549,23.75 C144.591549,24.44 144.033127,25 143.34507,25 C142.657014,25 142.098592,24.44 142.098592,23.75 C142.098592,23.06 142.657014,22.5 143.34507,22.5 C144.033127,22.5 144.591549,23.06 144.591549,23.75 Z M144.591549,38.75 C144.591549,39.44 144.033127,40 143.34507,40 C142.657014,40 142.098592,39.44 142.098592,38.75 C142.098592,38.06 142.657014,37.5 143.34507,37.5 C144.033127,37.5 144.591549,38.06 144.591549,38.75 Z M144.591549,43.75 C144.591549,44.44 144.033127,45 143.34507,45 C142.657014,45 142.098592,44.44 142.098592,43.75 C142.098592,43.06 142.657014,42.5 143.34507,42.5 C144.033127,42.5 144.591549,43.06 144.591549,43.75 Z M144.591549,58.75 C144.591549,59.44 144.033127,60 143.34507,60 C142.657014,60 142.098592,59.44 142.098592,58.75 C142.098592,58.06 142.657014,57.5 143.34507,57.5 C144.033127,57.5 144.591549,58.06 144.591549,58.75 Z M144.591549,63.75 C144.591549,64.44 144.033127,65 143.34507,65 C142.657014,65 142.098592,64.44 142.098592,63.75 C142.098592,63.06 142.657014,62.5 143.34507,62.5 C144.033127,62.5 144.591549,63.06 144.591549,63.75 Z M149.577465,18.75 C149.577465,19.44 149.019042,20 148.330986,20 C147.64293,20 147.084507,19.44 147.084507,18.75 C147.084507,18.06 147.64293,17.5 148.330986,17.5 C149.019042,17.5 149.577465,18.06 149.577465,18.75 Z M149.577465,23.75 C149.577465,24.44 149.019042,25 148.330986,25 C147.64293,25 147.084507,24.44 147.084507,23.75 C147.084507,23.06 147.64293,22.5 148.330986,22.5 C149.019042,22.5 149.577465,23.06 149.577465,23.75 Z M149.577465,38.75 C149.577465,39.44 149.019042,40 148.330986,40 C147.64293,40 147.084507,39.44 147.084507,38.75 C147.084507,38.06 147.64293,37.5 148.330986,37.5 C149.019042,37.5 149.577465,38.06 149.577465,38.75 Z M149.577465,43.75 C149.577465,44.44 149.019042,45 148.330986,45 C147.64293,45 147.084507,44.44 147.084507,43.75 C147.084507,43.06 147.64293,42.5 148.330986,42.5 C149.019042,42.5 149.577465,43.06 149.577465,43.75 Z M149.577465,48.75 C149.577465,49.44 149.019042,50 148.330986,50 C147.64293,50 147.084507,49.44 147.084507,48.75 C147.084507,48.06 147.64293,47.5 148.330986,47.5 C149.019042,47.5 149.577465,48.06 149.577465,48.75 Z M149.577465,53.75 C149.577465,54.44 149.019042,55 148.330986,55 C147.64293,55 147.084507,54.44 147.084507,53.75 C147.084507,53.06 147.64293,52.5 148.330986,52.5 C149.019042,52.5 149.577465,53.06 149.577465,53.75 Z M149.577465,58.75 C149.577465,59.44 149.019042,60 148.330986,60 C147.64293,60 147.084507,59.44 147.084507,58.75 C147.084507,58.06 147.64293,57.5 148.330986,57.5 C149.019042,57.5 149.577465,58.06 149.577465,58.75 Z M149.577465,63.75 C149.577465,64.44 149.019042,65 148.330986,65 C147.64293,65 147.084507,64.44 147.084507,63.75 C147.084507,63.06 147.64293,62.5 148.330986,62.5 C149.019042,62.5 149.577465,63.06 149.577465,63.75 Z M154.56338,18.75 C154.56338,19.44 154.004958,20 153.316901,20 C152.628845,20 152.070423,19.44 152.070423,18.75 C152.070423,18.06 152.628845,17.5 153.316901,17.5 C154.004958,17.5 154.56338,18.06 154.56338,18.75 Z M154.56338,23.75 C154.56338,24.44 154.004958,25 153.316901,25 C152.628845,25 152.070423,24.44 152.070423,23.75 C152.070423,23.06 152.628845,22.5 153.316901,22.5 C154.004958,22.5 154.56338,23.06 154.56338,23.75 Z M154.56338,38.75 C154.56338,39.44 154.004958,40 153.316901,40 C152.628845,40 152.070423,39.44 152.070423,38.75 C152.070423,38.06 152.628845,37.5 153.316901,37.5 C154.004958,37.5 154.56338,38.06 154.56338,38.75 Z M154.56338,43.75 C154.56338,44.44 154.004958,45 153.316901,45 C152.628845,45 152.070423,44.44 152.070423,43.75 C152.070423,43.06 152.628845,42.5 153.316901,42.5 C154.004958,42.5 154.56338,43.06 154.56338,43.75 Z M154.56338,48.75 C154.56338,49.44 154.004958,50 153.316901,50 C152.628845,50 152.070423,49.44 152.070423,48.75 C152.070423,48.06 152.628845,47.5 153.316901,47.5 C154.004958,47.5 154.56338,48.06 154.56338,48.75 Z M154.56338,53.75 C154.56338,54.44 154.004958,55 153.316901,55 C152.628845,55 152.070423,54.44 152.070423,53.75 C152.070423,53.06 152.628845,52.5 153.316901,52.5 C154.004958,52.5 154.56338,53.06 154.56338,53.75 Z M154.56338,58.75 C154.56338,59.44 154.004958,60 153.316901,60 C152.628845,60 152.070423,59.44 152.070423,58.75 C152.070423,58.06 152.628845,57.5 153.316901,57.5 C154.004958,57.5 154.56338,58.06 154.56338,58.75 Z M154.56338,63.75 C154.56338,64.44 154.004958,65 153.316901,65 C152.628845,65 152.070423,64.44 152.070423,63.75 C152.070423,63.06 152.628845,62.5 153.316901,62.5 C154.004958,62.5 154.56338,63.06 154.56338,63.75 Z" id="Combined-Shape" stroke="#FFFFFF" stroke-width="1.25"></path>
            </g>
        </g>
    </g>
</svg>