<svg xmlns="http://www.w3.org/2000/svg" xmlns:xlink="http://www.w3.org/1999/xlink" width="25" height="25" viewBox="0 0 25 25">
    <defs>
        <path id="a" d="M18.054 20.014H6.978a1 1 0 0 1-1-.976C5.9 15.86 7.171 14.27 9.792 14.27c0 0 .727 1.714 2.708 1.625 1.981.089 2.708-1.625 2.708-1.625 2.627 0 3.909 1.588 3.846 4.763a1 1 0 0 1-1 .98zm-9.08-9.46c-.382-.811-.433-1.987.394-1.987 0 0-.72-4.391 1.405-3.657 0 0-.45-1.754 3.083-.885 1.055.26 2.348 1.29 1.78 4.533-.002.016 1.194 0 .36 1.962-.16.377-.36.513-.66.581 0 0-.323 3.169-2.836 3.169s-2.821-3.1-2.827-3.102c-.183-.067-.456-.101-.699-.615z"/>
    </defs>
    <g fill="none" fill-rule="evenodd">
        <mask id="b" fill="#fff">
            <use xlink:href="#a"/>
        </mask>
        <g fill="#888" mask="url(#b)">
            <path d="M0 0h25v25H0z"/>
        </g>
    </g>
</svg>
