<svg xmlns="http://www.w3.org/2000/svg" width="242" height="26" viewBox="0 0 242 26">
    <g fill="#FFF" fill-rule="evenodd" opacity=".2">
        <path fill-rule="nonzero" d="M28.724 2.055h5.635l-3.525 21.79h-5.637l3.527-21.79zm17.004 8.876c3.25 1.504 4.754 3.345 4.735 5.748-.048 4.38-3.898 7.21-9.814 7.21-2.528-.026-4.963-.54-6.287-1.125l.788-4.738.742.336c1.834.787 3.042 1.123 5.29 1.123 1.623 0 3.362-.652 3.387-2.065 0-.92-.743-1.592-2.923-2.627-2.135-1.01-4.988-2.693-4.942-5.726.025-4.11 3.945-6.984 9.511-6.984 2.181 0 3.947.471 5.06.899L50.51 7.54l-.512-.227c-1.021-.425-2.367-.853-4.199-.807-2.226 0-3.224.92-3.248 1.818 0 .988 1.208 1.64 3.178 2.606zm20-8.809l4.545 21.74h-5.218l-.845-4.34h-6.62l-1.629 4.323h-5.916l8.374-19.97c.582-1.369 1.603-1.753 2.947-1.753h4.361zM59.23 15.158h3.988l-1.717-7.057s-2.157 7.068-2.27 7.057zM6.628 5.32C4.63 4.051 2.382 3.046 0 2.462l.09-.403h8.747c1.864.024 3.237 1.145 3.667 2.806l1.904 9.24a11.545 11.545 0 0 0-.025-.065l.58 2.82 5.524-14.805v.002h5.964l-8.863 21.766h-5.964L6.628 5.32z"/>
        <path d="M109.841 2.784c-.173.132-.344.268-.51.407-2.845 2.384-4.645 5.893-4.645 9.809 0 3.916 1.8 7.425 4.645 9.808.166.14.337.275.51.407.174-.132.345-.267.511-.407 2.845-2.383 4.645-5.892 4.645-9.808 0-3.916-1.8-7.425-4.645-9.809-.166-.14-.337-.275-.51-.407zM118.184 0c-2.764 0-5.333.8-7.473 2.172.11.087.22.172.327.26 3.18 2.665 5.004 6.517 5.004 10.568 0 4.05-1.824 7.902-5.004 10.567-.106.088-.217.174-.327.26A13.805 13.805 0 0 0 118.184 26c7.455 0 13.499-5.82 13.499-13s-6.044-13-13.499-13zm-9.539 23.567c.106.088.217.174.327.26A13.802 13.802 0 0 1 101.499 26C94.043 26 88 20.18 88 13s6.043-13 13.499-13c2.763 0 5.333.8 7.473 2.172-.11.087-.22.172-.327.26-3.18 2.665-5.004 6.517-5.004 10.568 0 4.05 1.824 7.903 5.004 10.567zm49.997-10.511c0-1.52 1.033-2.767 2.724-2.767 1.615 0 2.704 1.194 2.704 2.767s-1.09 2.767-2.704 2.767c-1.69 0-2.724-1.247-2.724-2.767zm7.269 0V8.733h-1.953v1.05c-.62-.778-1.56-1.267-2.836-1.267-2.517 0-4.489 1.9-4.489 4.54s1.972 4.54 4.489 4.54c1.277 0 2.216-.488 2.836-1.266v1.05h1.953v-4.324zm65.959 0c0-1.52 1.033-2.767 2.723-2.767 1.615 0 2.704 1.194 2.704 2.767s-1.09 2.767-2.704 2.767c-1.69 0-2.723-1.247-2.723-2.767zm9.452 3.913v.135h.13c.03 0 .054-.005.072-.017.017-.01.026-.028.026-.052a.056.056 0 0 0-.026-.05.131.131 0 0 0-.071-.016h-.13zm.132-.096c.068 0 .12.014.157.044a.144.144 0 0 1 .055.118.136.136 0 0 1-.044.105.217.217 0 0 1-.125.05l.173.192h-.135l-.16-.19h-.053v.19h-.112v-.51h.244zm-.034.685a.445.445 0 0 0 .406-.261.404.404 0 0 0 .035-.167.424.424 0 0 0-.268-.393.462.462 0 0 0-.489.09.41.41 0 0 0-.128.303.41.41 0 0 0 .127.302.461.461 0 0 0 .317.126zm0-.977a.595.595 0 0 1 .41.16c.053.05.094.109.125.176a.514.514 0 0 1 0 .425.55.55 0 0 1-.124.174.607.607 0 0 1-.41.163.598.598 0 0 1-.415-.163.55.55 0 0 1-.124-.174.51.51 0 0 1 0-.425.554.554 0 0 1 .309-.293.612.612 0 0 1 .23-.043zm-2.282-3.525V5.261h-1.954v4.521c-.62-.777-1.558-1.266-2.835-1.266-2.517 0-4.489 1.9-4.489 4.54s1.972 4.54 4.489 4.54c1.277 0 2.216-.488 2.835-1.266v1.05h1.954v-4.324zm-49-2.857c1.259 0 2.066.759 2.273 2.098h-4.658c.207-1.248.996-2.099 2.386-2.099zm.038-1.683c-2.63 0-4.47 1.845-4.47 4.54 0 2.75 1.916 4.54 4.601 4.54 1.352 0 2.592-.326 3.681-1.212l-.958-1.393c-.75.58-1.708.905-2.61.905-1.259 0-2.404-.561-2.686-2.116h6.668c.018-.236.037-.47.037-.724-.019-2.695-1.747-4.54-4.263-4.54zm23.57 4.54c0-1.52 1.033-2.767 2.723-2.767 1.615 0 2.704 1.194 2.704 2.767s-1.089 2.767-2.704 2.767c-1.69 0-2.723-1.247-2.723-2.767zm7.268 0V8.733h-1.953v1.05c-.62-.778-1.559-1.267-2.836-1.267-2.517 0-4.489 1.9-4.489 4.54s1.972 4.54 4.49 4.54c1.276 0 2.215-.488 2.835-1.266v1.05h1.953v-4.324zm-18.293 0c0 2.623 1.897 4.54 4.79 4.54 1.352 0 2.253-.29 3.23-1.031l-.94-1.52c-.731.507-1.502.778-2.347.778-1.559-.018-2.704-1.103-2.704-2.767s1.145-2.75 2.704-2.767c.845 0 1.616.271 2.348.778l.939-1.52c-.977-.741-1.878-1.03-3.23-1.03-2.893 0-4.79 1.917-4.79 4.539zm25.167-4.54c-1.127 0-1.86.507-2.366 1.266V8.733h-1.935v8.646h1.953v-4.847c0-1.43.639-2.225 1.916-2.225.395 0 .807.054 1.221.217l.6-1.772c-.431-.163-.995-.236-1.39-.236zm-52.324.905c-.939-.597-2.235-.905-3.662-.905-2.273 0-3.737 1.05-3.737 2.768 0 1.41 1.089 2.279 3.098 2.55l.92.127c1.071.144 1.578.415 1.578.904 0 .669-.714 1.049-2.047 1.049-1.352 0-2.329-.416-2.986-.904l-.92 1.465c1.07.759 2.422 1.12 3.887 1.12 2.592 0 4.095-1.175 4.095-2.82 0-1.52-1.183-2.316-3.137-2.587l-.92-.127c-.845-.108-1.521-.271-1.521-.85 0-.633.638-1.013 1.709-1.013 1.145 0 2.253.416 2.798.742l.845-1.52zm25.185-.905c-1.126 0-1.859.507-2.366 1.266V8.733h-1.934v8.646h1.953v-4.847c0-1.43.638-2.225 1.915-2.225.395 0 .808.054 1.221.217l.601-1.772c-.432-.163-.995-.236-1.39-.236zm-16.658.217h-3.193V6.111h-1.972v2.622h-1.822v1.719h1.822v3.943c0 2.007.808 3.2 3.118 3.2.845 0 1.821-.252 2.44-.668l-.562-1.61c-.582.326-1.22.488-1.728.488-.977 0-1.296-.578-1.296-1.447v-3.906h3.193V8.733zm-29.186 8.646v-5.426c0-2.044-1.352-3.418-3.53-3.437-1.146-.018-2.33.326-3.156 1.538-.62-.959-1.596-1.538-2.967-1.538-.958 0-1.897.272-2.63 1.285V8.733h-1.953v8.646h1.972v-4.793c0-1.501.864-2.297 2.197-2.297 1.297 0 1.954.814 1.954 2.279v4.811h1.972v-4.793c0-1.501.901-2.297 2.197-2.297 1.334 0 1.972.814 1.972 2.279v4.811h1.972zm-23.644 3.676v-.504h-.136l-.158.347-.157-.347h-.137v.504h.097v-.38l.147.328h.1l.148-.329v.381h.096zm-.866 0v-.418h.175v-.085h-.446v.085h.175v.418h.096z"/>
    </g>
</svg>
