<svg width="25px" height="50px" viewBox="0 0 25 50" version="1.1" xmlns="http://www.w3.org/2000/svg" xmlns:xlink="http://www.w3.org/1999/xlink">
    <g id="ui-kit" stroke="none" stroke-width="1" fill="none" fill-rule="evenodd">
        <g id="oll-ui-kit" transform="translate(-770.000000, -4050.000000)" fill="#FFFFFF">
            <g id="Group-90" transform="translate(770.000000, 4050.000000)">
                <g id="Group-103" transform="translate(2.000000, 14.000000)">
                    <path d="M9.34511916,1.75573215 C8.92773982,1.39405144 8.88258715,0.762498496 9.24426785,0.345119156 C9.60594856,-0.0722601848 10.2375015,-0.117412851 10.6548808,0.244267852 C11.2300617,0.742691723 12.0484474,1.67523687 12.856653,3.03736822 C14.1922856,5.28841323 14.9932861,7.9501613 14.9932861,11 C14.9932861,14.0498387 14.1922856,16.7115868 12.856653,18.9626318 C12.0484474,20.3247631 11.2300617,21.2573083 10.6548808,21.7557321 C10.2375015,22.1174129 9.60594856,22.0722602 9.24426785,21.6548808 C8.88258715,21.2375015 8.92773982,20.6059486 9.34511916,20.2442679 C9.43671412,20.1648961 9.62279848,19.9818772 9.87233715,19.6975295 C10.3010408,19.2090245 10.7325767,18.6230648 11.1366332,17.9420771 C12.2968044,15.9867508 12.9932861,13.6723216 12.9932861,11 C12.9932861,8.32767836 12.2968044,6.01324921 11.1366332,4.05792292 C10.7325767,3.37693524 10.3010408,2.79097547 9.87233715,2.30247052 C9.62279848,2.01812283 9.43671412,1.8351039 9.34511916,1.75573215 Z M5.28068308,5.69468206 C4.89702077,5.29741429 4.90805017,4.66434538 5.30531794,4.28068308 C5.70258571,3.89702077 6.33565462,3.90805017 6.71931692,4.30531794 C7.03737493,4.63465494 7.47347942,5.22845769 7.89822324,6.08384743 C8.59116194,7.47935367 9.00512695,9.12311054 9.00512695,11 C9.00512695,12.8768895 8.59116194,14.5206463 7.89822324,15.9161526 C7.47347942,16.7715423 7.03737493,17.3653451 6.71931692,17.6946821 C6.33565462,18.0919498 5.70258571,18.1029792 5.30531794,17.7193169 C4.90805017,17.3356546 4.89702077,16.7025857 5.28068308,16.3053179 C5.46390681,16.1155967 5.77972493,15.6855767 6.10690371,15.0266728 C6.66716936,13.8983562 7.00512695,12.5564067 7.00512695,11 C7.00512695,9.44359325 6.66716936,8.1016438 6.10690371,6.97332725 C5.77972493,6.31442332 5.46390681,5.88440329 5.28068308,5.69468206 Z M0.424503158,9.63133645 C0.075825664,9.20303463 0.140373934,8.57316845 0.568675755,8.22449095 C0.996977576,7.87581346 1.62684376,7.94036173 1.97552126,8.36866355 C2.10368208,8.5260913 2.25949017,8.77776247 2.40417135,9.12341586 C2.63006894,9.66310087 2.76342773,10.2912857 2.76342773,11 C2.76342773,11.7087143 2.63006894,12.3368991 2.40417135,12.8765841 C2.25949017,13.2222375 2.10368208,13.4739087 1.97552126,13.6313365 C1.62684376,14.0596383 0.996977576,14.1241865 0.568675755,13.775509 C0.140373934,13.4268316 0.075825664,12.7969654 0.424503158,12.3686635 C0.437196215,12.3530719 0.492668946,12.2634688 0.559268588,12.1043576 C0.685505708,11.8027684 0.763427734,11.4357177 0.763427734,11 C0.763427734,10.5642823 0.685505708,10.1972316 0.559268588,9.89564237 C0.492668946,9.7365312 0.437196215,9.64692811 0.424503158,9.63133645 Z" id="Combined-Shape"></path>
                </g>
            </g>
        </g>
    </g>
</svg>
