<svg width="25px" height="50px" viewBox="0 0 25 50" version="1.1" xmlns="http://www.w3.org/2000/svg" xmlns:xlink="http://www.w3.org/1999/xlink">
    <g id="ui-kit" stroke="none" stroke-width="1" fill="none" fill-rule="evenodd">
        <g id="oll-ui-kit" transform="translate(-745.000000, -4050.000000)" fill="#FFFFFF">
            <g id="Group-90" transform="translate(745.000000, 4050.000000)">
                <g id="Group-81" transform="translate(8.000000, 12.000000)">
                    <path d="M4,8 L1,8 C0.44771525,8 -6.76353751e-17,8.44771525 0,9 L0,17 C6.76353751e-17,17.5522847 0.44771525,18 1,18 L4,18 L11.7071068,25.7071068 C11.8946432,25.8946432 12.1489971,26 12.4142136,26 L13,26 C13.5522847,26 14,25.5522847 14,25 L14,1 C14,0.44771525 13.5522847,-1.01453063e-16 13,0 L12.4142136,0 C12.1489971,4.87194788e-17 11.8946432,0.10535684 11.7071068,0.292893219 L4,8 Z" id="Combined-Shape"></path>
                </g>
            </g>
        </g>
    </g>
</svg>
