<svg xmlns="http://www.w3.org/2000/svg" width="124" height="40" viewBox="0 0 124 40">
    <g fill="#09F" fill-rule="nonzero">
        <path d="M66.837 28.127h-8.26V3.217c0-2.639-1.78-2.693-5.884-2.693-4.334 0-5.88.054-5.88 2.693v32.385c0 3.555.342 3.771 3.902 3.771h16.122c2.726 0 2.69-.94 2.69-5.62 0-4.44.036-5.626-2.69-5.626M20 29.157c-5.065 0-9.176-4.109-9.176-9.163 0-4.548 3.314-8.307 7.653-9.036-.06.428-.102.861-.102 1.307 0 5.066 4.112 9.169 9.176 9.169.521 0 1.025-.054 1.522-.139A9.163 9.163 0 0 1 20 29.157zM20 0C8.96 0 0 8.946 0 19.994 0 31.03 8.96 39.982 20 39.976c11.05 0 20.005-8.952 20.005-19.988C40.005 8.946 31.05 0 19.999 0zM108.346.428h-8.738c-.822 0-1.487.668-1.487 1.482 0 .819.665 1.482 1.487 1.482h2.72v9.91c0 .927.726 1.65 1.649 1.65s1.654-.723 1.654-1.65v-9.91h2.72c.822 0 1.487-.663 1.487-1.482a1.496 1.496 0 0 0-1.492-1.482M95.532 28.127h-8.259V3.217c0-2.639-1.78-2.693-5.885-2.693-4.333 0-5.88.054-5.88 3.458v32.385c0 2.79.342 3.006 3.902 3.006h16.122c2.727 0 2.691-.94 2.691-5.62.006-4.44.042-5.626-2.69-5.626M122.454.386c-.743 0-1.277.47-1.48.951l-2.961 8.94-2.93-8.807c-.205-.494-.642-1.084-1.59-1.084-.856 0-1.533.656-1.533 1.5 0 .27.095.542.203.8l.012.025 3.782 10.97c.372.861.989 1.295 1.846 1.295h.282c.857 0 1.48-.434 1.852-1.295l3.841-11.12.012-.03c.102-.236.174-.513.174-.7-.006-.813-.665-1.445-1.51-1.445"/>
    </g>
</svg>
