<svg xmlns="http://www.w3.org/2000/svg" width="24" height="20" viewBox="0 0 24 20">
    <path fill="#919191" fill-rule="nonzero" d="M24 2.366a9.64 9.64 0 0 1-2.827.796A5.051 5.051 0 0 0 23.337.369a9.775 9.775 0 0 1-3.128 1.227A4.853 4.853 0 0 0 16.615 0c-2.719 0-4.923 2.262-4.923 5.05 0 .395.043.781.127 1.15C7.728 5.99 4.1 3.98 1.672.923a5.112 5.112 0 0 0-.666 2.539c0 1.752.87 3.299 2.19 4.203a4.83 4.83 0 0 1-2.23-.634v.063c0 2.447 1.697 4.488 3.949 4.953a4.869 4.869 0 0 1-1.298.177 4.61 4.61 0 0 1-.927-.094c.627 2.008 2.445 3.468 4.599 3.508a9.72 9.72 0 0 1-6.115 2.159c-.397 0-.789-.025-1.174-.07A13.663 13.663 0 0 0 7.547 20c9.056 0 14.007-7.696 14.007-14.37l-.017-.654A9.975 9.975 0 0 0 24 2.366z"/>
</svg>
