<svg xmlns="http://www.w3.org/2000/svg" width="20" height="24" viewBox="0 0 20 24">
    <g fill="#919191" fill-rule="nonzero">
        <path d="M11.999 15.582c-.203 0-.402.097-.596.291v3.985c.194.194.393.29.596.29.344 0 .516-.295.516-.886v-2.793c0-.592-.172-.887-.516-.887zM16.394 15.582c-.397 0-.596.3-.596.9v.609h1.192v-.61c0-.6-.199-.9-.596-.9zM4.85 5.282V8.87h1.324V5.282L7.776 0h-1.35l-.9 3.482L4.586 0H3.181c.247.741.534 1.567.86 2.476.416 1.218.685 2.153.808 2.806zM9.55 8.963c.609 0 1.076-.226 1.403-.676.247-.326.37-.847.37-1.562V4.408c0-.705-.123-1.222-.37-1.549-.327-.45-.794-.675-1.403-.675-.592 0-1.055.225-1.39.675-.247.327-.371.844-.371 1.55v2.316c0 .706.123 1.227.37 1.562.336.45.8.676 1.39.676zM8.98 4.17c0-.609.19-.913.57-.913.38 0 .569.304.569.913v2.78c0 .618-.19.927-.57.927-.379 0-.569-.309-.569-.927V4.17zM13.19 8.963c.442 0 .896-.274 1.364-.821v.728h1.205V2.264h-1.205v5.044c-.265.38-.516.569-.755.569-.159 0-.252-.097-.278-.291-.009-.018-.013-.173-.013-.464V2.264h-1.205V7.48c0 .45.036.78.106.993.115.326.375.49.781.49z"/>
        <path d="M19.293 12.259a2.418 2.418 0 0 0-.76-1.31 2.423 2.423 0 0 0-1.358-.623c-1.624-.177-4.073-.265-7.347-.265-3.275 0-5.72.089-7.335.265-.52.062-.975.27-1.363.622-.389.353-.645.79-.768 1.31-.23 1.025-.344 2.569-.344 4.634 0 2.1.114 3.645.344 4.634.115.52.368.958.761 1.31.393.353.845.556 1.357.61 1.624.185 4.073.277 7.348.277 3.274 0 5.723-.092 7.347-.278a2.317 2.317 0 0 0 1.35-.609c.389-.352.645-.79.768-1.31.23-1.024.345-2.569.345-4.634 0-2.1-.115-3.645-.345-4.633zM5.618 13.596H4.2v7.533H2.878v-7.533h-1.39v-1.244h4.13v1.244zm3.574 7.533H8.014v-.716c-.477.54-.927.808-1.35.808-.406 0-.662-.163-.768-.49-.07-.211-.106-.534-.106-.966v-5.176h1.178v4.818c0 .283.005.437.013.464.027.185.12.278.278.278.239 0 .49-.186.755-.556v-5.004h1.178v6.54zm4.501-1.96c0 .644-.04 1.086-.118 1.324-.15.485-.464.728-.94.728-.424 0-.834-.243-1.232-.728v.636h-1.178v-8.777h1.178v2.872c.38-.476.79-.714 1.232-.714.476 0 .79.247.94.741.079.23.118.666.118 1.31v2.608zm4.475-1.085h-2.37v1.152c0 .609.203.913.61.913.29 0 .467-.159.529-.477.017-.088.026-.357.026-.807h1.205v.172c0 .432-.01.688-.027.768a1.603 1.603 0 0 1-.278.714c-.317.468-.794.702-1.43.702-.608 0-1.085-.225-1.43-.675-.255-.326-.383-.838-.383-1.536v-2.29c0-.697.123-1.21.37-1.536.345-.45.817-.675 1.417-.675.592 0 1.06.225 1.403.675.24.327.358.839.358 1.536v1.364z"/>
    </g>
</svg>
