<svg xmlns="http://www.w3.org/2000/svg" width="25" height="25" viewBox="0 0 25 25">
    <path fill="#FFF" fill-rule="evenodd" d="M6.25 17.3l2.55 1.15 1.75 1.65-.6.5c-1.295-.395-2.462-1.112-3.5-2.15a45.355 45.355 0 0 0-.65-.7l.45-.45zM14.6 20h1.8c-1.186.633-2.502.95-3.95.95-.408 0-.808-.033-1.2-.1l.4-.3 2.95-.6V20zm4.55-5.15l.05 2.8a7.66 7.66 0 0 1-.7.8 5.55 5.55 0 0 1-.7.55h-2.7v-1.75L17.3 15l1.85-.15zm1.7-3.7c.067.416.1.85.1 1.3 0 1.303-.267 2.503-.8 3.6v-1.7h-.05l.55-2.9.2-.3zm-3.6-5.05l.4-.4c.292.215.575.448.85.7.975 1.003 1.658 2.12 2.05 3.35l-.25.55v-.05l-.05.05-1.6-1.5-1.4-2.7zm-10.6 4.95l-1.45 1.6-1.2-1.2c.204-1.764.904-3.33 2.1-4.7L7.3 8l-.65 3.05zm5.9-5.8l-1.4 1.45L8 7.3 6.8 6.05C8.1 4.888 9.6 4.205 11.3 4l1.25 1.25zm-2 10.75L9 17.45l-2.45-1.1-.8-2.9 1.5-1.55 2.55 1.15.75 2.95zm5.3-4.55l.7 2.95-2.1 2.1-2.95-.75-.75-2.95 2.15-2.2 2.95.85zM13.4 5.8l2.9.65 1.3 2.45-1.5 1.55-3-.85-1.15-2.3 1.45-1.5z"/>
</svg>
