<svg xmlns="http://www.w3.org/2000/svg" width="15" height="19" viewBox="0 0 15 19">
    <path fill="#FFCB00" fill-rule="evenodd" d="M10 3.025A12.279 12.279 0 0 0 9.154 3H6.846c-1.337 0-1.822.14-2.311.4A2.726 2.726 0 0 0 3.4 4.536C3.139 5.024 3 5.509 3 6.845v6.31c0 .329.008.606.025.845h-.461c-.892 0-1.215-.093-1.54-.267a1.817 1.817 0 0 1-.757-.756C.093 12.65 0 12.327 0 11.437V2.563c0-.892.093-1.215.267-1.54.174-.327.43-.583.756-.757C1.35.093 1.673 0 2.563 0h4.873c.892 0 1.215.093 1.54.267.327.174.583.43.757.756.174.326.267.65.267 1.54v.462zM7.564 5h4.872c.892 0 1.215.093 1.54.267.327.174.583.43.757.756.174.326.267.65.267 1.54v8.873c0 .892-.093 1.215-.267 1.54-.174.327-.43.583-.756.757-.326.174-.65.267-1.54.267H7.563c-.892 0-1.215-.093-1.54-.267a1.817 1.817 0 0 1-.757-.756c-.174-.326-.267-.65-.267-1.54V7.563c0-.892.093-1.215.267-1.54.174-.327.43-.583.756-.757.326-.174.65-.267 1.54-.267z"/>
</svg>
