<?xml version="1.0" encoding="UTF-8"?>
<svg width="28px" height="24px" viewBox="0 0 28 24" version="1.1" xmlns="http://www.w3.org/2000/svg" xmlns:xlink="http://www.w3.org/1999/xlink">
    <!-- Generator: Sketch 51 (57462) - http://www.bohemiancoding.com/sketch -->
    <title>Rectangle-10</title>
    <desc>Created with Sketch.</desc>
    <defs></defs>
    <g id="Page-1" stroke="none" stroke-width="1" fill="none" fill-rule="evenodd">
        <g id="subs-player" transform="translate(-723.000000, -1050.000000)" fill="#555555" fill-rule="nonzero">
            <g id="Group-19" transform="translate(723.000000, 1050.000000)">
                <g id="Group-18">
                    <g id="Group-10">
                        <g id="Group">
                            <path d="M10.2325906,1.15592687 L1.14839305,2.8075958 L1.80831778,6.76714415 L3.51492875,6.34049141 C3.67356996,6.3008311 3.83647639,6.28077641 4,6.28077641 C5.1045695,6.28077641 6,7.17620691 6,8.28077641 L6,23 L22,23 L22,8.28077641 C22,8.11725279 22.0200547,7.95434636 22.059715,7.79570516 C22.3276125,6.72411534 23.4134814,6.07259395 24.4850713,6.34049141 L26.1916822,6.76714415 L26.8516069,2.8075958 L17.7294071,1.149014 C17.1062154,2.9883184 15.8102127,4 14,4 C12.1147198,4 10.7930529,2.99588604 10.2325906,1.15592687 Z M11.1891958,0.864539418 C11.6228449,2.28817981 12.5597796,3 14,3 C15.3642787,3 16.2917113,2.27603049 16.7822978,0.828091469 C16.9414122,0.358550901 17.4205215,0.076458448 17.9082925,0.165144091 L27.0304924,1.82372589 C27.5682273,1.92149588 27.9278533,2.43288033 27.8380009,2.97199479 L27.1780761,6.93154314 C27.0872811,7.47631346 26.5720536,7.84433313 26.0272832,7.75353807 C26.0097823,7.75062125 25.4148664,7.60298653 24.2425356,7.31063391 C23.7067407,7.17668518 23.1638062,7.50244587 23.0298575,8.03824078 C23.0100273,8.11756139 23,8.1990146 23,8.28077641 L23,23 C23,23.5522847 22.5522847,24 22,24 L6,24 C5.44771525,24 5,23.5522847 5,23 L5,8.28077641 C5,7.72849166 4.55228475,7.28077641 4,7.28077641 C3.91823819,7.28077641 3.83678498,7.29080376 3.75746437,7.31063391 L2.0508534,7.73728665 C1.5150585,7.87123538 0.972124007,7.54547468 0.83817528,7.00967977 C0.831720551,6.98386086 0.826299093,6.95779456 0.821923856,6.93154314 L0.161999131,2.97199479 C0.0721467222,2.43288033 0.431772666,1.92149588 0.969507617,1.82372589 L10.0537377,0.172076791 C10.5531128,0.0812813241 11.0412985,0.379002926 11.1891958,0.864539418 Z" id="Rectangle-10"></path>
                        </g>
                    </g>
                </g>
            </g>
        </g>
    </g>
</svg>