<?xml version="1.0" encoding="UTF-8"?>
<svg width="18px" height="18px" viewBox="0 0 18 18" version="1.1" xmlns="http://www.w3.org/2000/svg" xmlns:xlink="http://www.w3.org/1999/xlink">
    <!-- Generator: Sketch 51 (57462) - http://www.bohemiancoding.com/sketch -->
    <title>Group 20</title>
    <desc>Created with Sketch.</desc>
    <defs>
        <linearGradient x1="15.5058345%" y1="5.55111512e-15%" x2="100%" y2="84.4030667%" id="linearGradient-1">
            <stop stop-color="#FF0000" offset="0%"></stop>
            <stop stop-color="#05D315" offset="100%"></stop>
        </linearGradient>
    </defs>
    <g id="football" stroke="none" stroke-width="1" fill="none" fill-rule="evenodd">
        <g id="Group-20" fill="url(#linearGradient-1)">
            <path d="M13.618524,16.0474056 L11.274996,16.0474056 C8.0347776,16.0474056 6.8597964,15.7163808 5.6752212,15.0947868 C4.490646,14.4731916 3.5609844,13.561026 2.9274672,12.3987456 C2.2939488,11.236464 1.9565748,10.0835964 1.9565748,6.9043596 L1.9565748,3.710304 L0,3.710304 L2.569974,0 L5.139948,3.710304 L3.168072,3.710304 L3.168072,7.239504 C3.168072,9.8888676 3.4492176,10.8495912 3.9771492,11.818158 C4.5050808,12.786726 5.2797984,13.5468636 6.2669448,14.0648592 C7.25409,14.5828548 8.233242,14.8587084 10.9334232,14.8587084 L13.618524,14.8587084 L13.618524,12.9567864 L17.4,15.4783932 L13.618524,18 L13.618524,16.0474056 Z" id="Fill-4"></path>
        </g>
    </g>
</svg>